M48
INCH
T01C.012
T02C.019685
T03C.02
T04C.047244
T05C.055118
T06C.102362
T07C.11811
;LEADER: 12 
;HEADER: 
;CODE  : ASCII 
;FILE  : ADI_BASEBOARD_V1-1-2.drl for board D:/WorkPrj/XiaobinGao/ADIS16448/BRD/#Taaaaba13640.tmp ... layers TOP and BOTTOM
;T01 Holesize 1. = 12.000000 Tolerance = +0.000000/-0.000000 PLATED MILS Quantity = 77
;T02 Holesize 2. = 19.685000 Tolerance = +0.000000/-0.000000 PLATED MILS Quantity = 20
;T03 Holesize 3. = 20.000000 Tolerance = +0.000000/-0.000000 PLATED MILS Quantity = 2
;T04 Holesize 4. = 47.244000 Tolerance = +0.000000/-0.000000 PLATED MILS Quantity = 6
;T05 Holesize 5. = 55.118000 Tolerance = +0.000000/-0.000000 PLATED MILS Quantity = 24
;T06 Holesize 6. = 102.362000 Tolerance = +0.000000/-0.000000 PLATED MILS Quantity = 2
;T07 Holesize 7. = 118.110000 Tolerance = +0.000000/-0.000000 PLATED MILS Quantity = 4
%
G90
T01
X0114500Y-0105000
X0114500Y-0120500
X0109256Y-0131744
X0097000Y-0128500
X0097000Y-0135500
X0092750Y-0118750
X0081165Y-0111335
X0071000Y-0119000
X0002750Y-0118750
X0002750Y-0124250
X-0064000Y-0108000
X-0019307Y-0099500
X-0002000Y-0091000
X-0002000Y-0087500
X0003500Y-0087500
X0009000Y-0088000
X0009500Y-0092000
X-0004500Y0045500
X-0048500Y0029000
X-0048559Y0032559
X-0060378Y0028622
X-0093250Y0069750
X-0087750Y0069750
X-0086000Y0086000
X-0039250Y0089750
X-0033500Y0095500
X-0032000Y0075500
X-0021000Y0076000
X-0014500Y0077000
X-0011250Y0086250
X-0004500Y0095000
X0003500Y0080000
X0005148Y0087851
X0009000Y0082500
X0016649Y0087851
X0022000Y0084500
X0024500Y0080500
X0030250Y0078750
X0031858Y0098642
X0048300Y0084300
X0144500Y0081000
X0144500Y0087000
X0150000Y0081000
X0155500Y0081000
X0161500Y0081000
X0113500Y0111000
X0105846Y0113346
X0100500Y0116500
X0100500Y0105000
X0094000Y0111500
X0080500Y0114000
X0064000Y0115000
X0059250Y0124750
X0032000Y0107000
X0031000Y0111000
X0028500Y0103500
X0028250Y0142250
X0016000Y0120000
X0013000Y0105000
X0012500Y0109500
X0008250Y0136750
X0001500Y0107500
X-0005000Y0101000
X-0005500Y0118500
X-0005500Y0106500
X-0013000Y0133000
X-0028500Y0113000
X-0039250Y0109750
X-0047250Y0145250
X-0047250Y0129250
X-0053000Y0139000
X-0071000Y0126000
X-0075500Y0126000
X-0080000Y0149000
X-0090000Y0126000
X-0093750Y0127250
X-0108000Y0150000
T02
X-0056937Y0005000
X-0053000Y0005000
X-0056937Y0008937
X-0053000Y0008937
X-0056937Y0012874
X-0053000Y0012874
X-0056937Y0016811
X-0053000Y0016811
X-0056937Y0020748
X-0053000Y0020748
X-0056937Y0024685
X-0053000Y0024685
X-0056937Y0028622
X-0053000Y0028622
X-0056937Y0032559
X-0053000Y0032559
X-0056937Y0036496
X-0053000Y0036496
X-0056937Y0040433
X-0053000Y0040433
T03
X0070750Y-0139750
X-0004500Y0022500
T04
X0074394Y0133000
R02X0009843
X0103921Y0133000
R02X0009843
T05
X-0150630Y-0043268
X-0150630Y-0025551
X-0150630Y-0012559
R03Y0012992
X-0150630Y0039410
X-0150630Y0057126
X-0132913Y0057126
X-0132913Y0039410
X-0132913Y0026417
R03Y-0012992
X-0132913Y-0025551
X-0132913Y-0043268
X-0115197Y-0043268
X-0115197Y-0025551
X-0115197Y-0012559
R03Y0012992
X-0115197Y0039410
X-0115197Y0057126
T06
X0160394Y-0122047
X0160394Y0122047
T07
X0011752Y-0017984
X0011752Y0058984
X0143248Y0058984
X0143248Y-0017984
M30
