G04 ================== begin FILE IDENTIFICATION RECORD ==================*
G04 Layout Name:  D:/WorkPrj/XiaobinGao/ADIS16448/BRD/ADI_BASEBOARD_V1.brd*
G04 Film Name:    BOTTOM*
G04 File Format:  Gerber RS274X*
G04 File Origin:  Cadence Allegro 16.6-2015-S088*
G04 Origin Date:  Thu May 17 11:22:17 2018*
G04 *
G04 Layer:  BOARD GEOMETRY/OUTLINE*
G04 Layer:  ETCH/BOTTOM*
G04 Layer:  PIN/BOTTOM*
G04 Layer:  VIA CLASS/BOTTOM*
G04 *
G04 Offset:    (0.000 0.000)*
G04 Mirror:    No*
G04 Mode:      Positive*
G04 Rotation:  0*
G04 FullContactRelief:  No*
G04 UndefLineWidth:     5.000*
G04 ================== end FILE IDENTIFICATION RECORD ====================*
%FSLAX25Y25*MOIN*%
%IR0*IPPOS*OFA0.00000B0.00000*MIA0B0*SFA1.00000B1.00000*%
%ADD13C,.23622*%
%ADD14C,.03*%
%ADD11C,.024*%
%ADD12C,.031496*%
%ADD10C,.086614*%
%ADD15C,.008*%
%ADD16C,.003937*%
%ADD17C,.01*%
%ADD18C,.02*%
%ADD19C,.246224*%
%ADD20C,.034004*%
%ADD21C,.096618*%
G75*
%LPD*%
G75*
G36*
G01X-109448Y150890D02*
G03X-108073Y148301I1448J-890D01*
G01X-107995Y148298D01*
X-91200Y131503D01*
Y127342D01*
G03X-91273Y124727I1200J-1342D01*
G01X-69300Y102754D01*
Y76300D01*
X-89246D01*
X-94523Y71023D01*
G03X-91977Y68477I1273J-1273D01*
G01X-87754Y72700D01*
X-69300D01*
Y63254D01*
X-35246Y29200D01*
X33754D01*
X34700Y28254D01*
Y-106246D01*
X68860Y-140406D01*
X68875Y-140447D01*
G03X71447Y-137875I1875J697D01*
G01X71406Y-137860D01*
X38300Y-104754D01*
Y29746D01*
X35246Y32800D01*
X-33754D01*
X-65700Y64746D01*
Y104246D01*
X-78308Y116854D01*
X-72018Y123144D01*
X-72017D01*
X-70857Y124305D01*
X-70789Y124313D01*
G03X-72687Y126211I-211J1687D01*
G01X-72696Y126143D01*
X-73094Y125744D01*
X-73095D01*
X-80147Y118692D01*
X-88727Y127273D01*
G03X-88800Y127342I-1273J-1273D01*
G01Y132497D01*
X-106298Y149995D01*
X-106301Y150073D01*
G03X-106552Y150890I-1699J-73D01*
G02X-106211Y151500I341J209D01*
G01X173000D01*
X178500Y146000D01*
Y-146000D01*
X173000Y-151500D01*
X-171000D01*
X-178500Y-144000D01*
Y92500D01*
X-178000Y93000D01*
Y145500D01*
X-172000Y151500D01*
X-109789D01*
G02X-109448Y150890I0J-400D01*
G37*
%LPC*%
G75*
G36*
G01X94023Y-117477D02*
G02X91477Y-120023I-1273J-1273D01*
G01X84700Y-113246D01*
Y-111246D01*
X65200Y-91746D01*
Y33254D01*
X63254Y35200D01*
X-11246D01*
X-22800Y46754D01*
Y76000D01*
G02X-19200I1800J0D01*
G01Y48246D01*
X-9754Y38800D01*
X-6300D01*
Y45500D01*
G02X-2700I1800J0D01*
G01Y38800D01*
X46500D01*
Y84300D01*
G02X47027Y85573I1800J0D01*
G01X57450Y95996D01*
Y123450D01*
X35711D01*
X23961Y135200D01*
X19105D01*
G03X18822Y134517I0J-400D01*
G01X19170Y134169D01*
G02X19438Y133778I-920J-919D01*
G01X19453Y133744D01*
X35200Y117997D01*
Y108503D01*
X33702Y107005D01*
X33699Y106927D01*
G02X31927Y108699I-1699J73D01*
G01X32005Y108702D01*
X32800Y109497D01*
Y110175D01*
X32490D01*
X32431Y110083D01*
G02X29800Y112204I-1431J917D01*
G01Y116003D01*
X17753Y128050D01*
X-46046D01*
G02Y130450I-1204J1200D01*
G01X18747D01*
X32200Y116997D01*
Y112204D01*
G02X32431Y111918I-1200J-1204D01*
G01X32800Y112025D01*
Y117003D01*
X17756Y132047D01*
X17722Y132062D01*
G02X17483Y132200I528J1188D01*
G01X461D01*
X-3539Y136200D01*
X-40039D01*
X-47393Y143554D01*
X-47461Y143563D01*
G02X-45563Y145461I211J1687D01*
G01X-45554Y145393D01*
X-38961Y138800D01*
X-2461D01*
X1539Y134800D01*
X6833D01*
G03X7103Y135495I0J400D01*
G02X9346Y138050I1147J1255D01*
G01X10989D01*
X11239Y137800D01*
X25039D01*
X36789Y126050D01*
X58005D01*
G02X60495I1245J-1300D01*
G01X114818D01*
X119395Y130628D01*
X119327Y130758D01*
G02X119061Y131363I4279J2242D01*
G03X118309I-376J-136D01*
G02X109219I-4545J1637D01*
G03X108466I-376J-136D01*
G02X99376Y131363I-4545J1637D01*
G03X98624I-376J-136D01*
G02X89534Y131363I-4545J1637D01*
G03X88781I-376J-136D01*
G02X79691I-4545J1637D01*
G03X78939I-376J-136D01*
G02Y134637I-4545J1637D01*
G03X79691I376J136D01*
G02X88781I4545J-1637D01*
G03X89534I376J136D01*
G02X98624Y134637I4545J-1637D01*
G03X99376I376J136D01*
G02X108466Y134637I4545J-1637D01*
G03X109219I376J136D01*
G02X118309I4545J-1637D01*
G03X119061I376J136D01*
G02X121236Y128791I4545J-1637D01*
G01X115895Y123450D01*
X61050D01*
Y94504D01*
X50100Y83554D01*
Y38800D01*
X64746D01*
X68800Y34746D01*
Y-90254D01*
X88300Y-109754D01*
Y-111754D01*
X94023Y-117477D01*
G37*
G36*
G01X-18200Y-116461D02*
X-11711Y-122950D01*
X1654D01*
G02Y-125550I1096J-1300D01*
G01X-12789D01*
X-20800Y-117539D01*
Y-101354D01*
X-20607Y-101161D01*
Y-100598D01*
X-20649Y-100543D01*
G02X-18007Y-100596I1342J1044D01*
G01Y-102239D01*
X-18200Y-102432D01*
Y-116461D01*
G37*
G36*
G01X-54650Y3742D02*
G03X-55287I-318J-243D01*
G02X-58195Y6650I-1650J1258D01*
G03Y7287I-243J318D01*
G02Y10587I1258J1650D01*
G03Y11224I-243J318D01*
G02Y14524I1258J1650D01*
G03Y15161I-243J318D01*
G02Y18461I1258J1650D01*
G03Y19098I-243J318D01*
G02Y22398I1258J1650D01*
G03Y23035I-243J318D01*
G02Y26335I1258J1650D01*
G03Y26972I-243J318D01*
G02Y30272I1258J1650D01*
G03Y30909I-242J318D01*
G02Y34210I1258J1650D01*
G03Y34846I-243J318D01*
G02Y38146I1258J1650D01*
G03Y38783I-243J318D01*
G02X-55287Y41691I1258J1650D01*
G03X-54650I318J243D01*
G02X-51742Y38783I1650J-1258D01*
G03Y38146I243J-318D01*
G02Y34846I-1258J-1650D01*
G03Y34210I243J-318D01*
G02Y30909I-1258J-1650D01*
G03Y30272I242J-318D01*
G02X-51522Y27166I-1258J-1650D01*
G03X-51237Y26485I285J-281D01*
G01X-7939D01*
X-5754Y24300D01*
X-5373D01*
X-5333Y24318D01*
G02X-5372Y20700I833J-1818D01*
G01X-7246D01*
X-9431Y22885D01*
X-51237D01*
G03X-51522Y22204I0J-400D01*
G02X-51742Y19098I-1478J-1456D01*
G03Y18461I243J-318D01*
G02Y15161I-1258J-1650D01*
G03Y14524I243J-318D01*
G02Y11224I-1258J-1650D01*
G03Y10587I243J-318D01*
G02Y7287I-1258J-1650D01*
G03Y6650I243J-318D01*
G02X-54650Y3742I-1258J-1650D01*
G37*
G36*
G01X-119680Y55326D02*
X-128430D01*
G02Y58926I-4483J1800D01*
G01X-119680D01*
G02Y55326I4483J-1800D01*
G37*
G36*
G01X22073Y82801D02*
X21995Y82798D01*
X21080Y81883D01*
G03X21363Y81200I283J-283D01*
G01X22951D01*
G02X24500Y78800I1549J-700D01*
G01X4704D01*
G02Y81200I-1204J1200D01*
G01X7102D01*
G03X7464Y81772I0J400D01*
G02X10204Y83700I1536J728D01*
G01X19503D01*
X20298Y84495D01*
X20301Y84573D01*
G02X22073Y82801I1699J-73D01*
G37*
G36*
G01X13073Y103301D02*
X12995Y103298D01*
X-5253Y85050D01*
X-10046D01*
G02Y87450I-1204J1200D01*
G01X-6247D01*
X-5580Y88117D01*
G03X-5863Y88800I-283J283D01*
G01X-28497D01*
X-33495Y93798D01*
X-33573Y93801D01*
G02X-31801Y95573I73J1699D01*
G01X-31798Y95495D01*
X-27503Y91200D01*
X-4997D01*
X9400Y105597D01*
Y108097D01*
X10798Y109495D01*
X10801Y109573D01*
G02X12573Y107801I1699J-73D01*
G01X12495Y107798D01*
X11800Y107103D01*
Y106942D01*
G03X12353Y106572I400J0D01*
G02X13073Y103301I648J-1572D01*
G37*
G36*
G01X15444Y86651D02*
X6353D01*
G02Y89052I-1204J1200D01*
G01X15444D01*
G02Y86651I1204J-1200D01*
G37*
G36*
G01X26798Y103505D02*
X7503Y122800D01*
X-49497D01*
X-53244Y126547D01*
X-53278Y126562D01*
G02X-53669Y126831I528J1188D01*
G01X-54300Y127461D01*
Y137904D01*
G02X-51700I1300J1096D01*
G01Y128517D01*
G02X-51562Y128278I-1050J-766D01*
G01X-51547Y128244D01*
X-48503Y125200D01*
X8497D01*
X28495Y105202D01*
X28573Y105199D01*
G02X26801Y103427I-73J-1699D01*
G01X26798Y103505D01*
G37*
G36*
G01X101700Y115296D02*
Y106204D01*
G02X99300I-1200J-1204D01*
G01Y115296D01*
G02X101700I1200J1204D01*
G37*
G54D19*
X160394Y122047D03*
Y-122047D03*
X143248Y58984D03*
Y-17984D03*
X11752Y58984D03*
Y-17984D03*
G54D20*
X114500Y-105000D03*
X-64000Y-108000D03*
G54D21*
X-115197Y39410D03*
Y26417D03*
Y13425D03*
Y433D03*
Y-12559D03*
Y-25551D03*
Y-43268D03*
X-150630Y57126D03*
X-132913Y39410D03*
X-150630D03*
X-132913Y26417D03*
X-150630D03*
X-132913Y13425D03*
X-150630D03*
X-132913Y433D03*
X-150630D03*
X-132913Y-12559D03*
X-150630D03*
X-132913Y-25551D03*
X-150630D03*
X-132913Y-43268D03*
X-150630D03*
%LPD*%
G75*
G54D10*
X-150630Y-43268D03*
X-132913D03*
X-150630Y-25551D03*
X-132913D03*
X-150630Y-12559D03*
X-132913D03*
X-150630Y433D03*
X-132913D03*
X-150630Y13425D03*
X-132913D03*
X-150630Y26417D03*
X-132913D03*
X-150630Y39410D03*
X-132913D03*
X-150630Y57126D03*
X-132913D03*
X-115197Y-43268D03*
Y-25551D03*
Y-12559D03*
Y433D03*
Y13425D03*
Y26417D03*
Y39410D03*
Y57126D03*
X74394Y133000D03*
X84236D03*
X94079D03*
X103921D03*
X113764D03*
X123606D03*
G54D11*
X-108000Y150000D03*
X-87750Y69750D03*
X-93250D03*
X-86000Y86000D03*
X-75500Y126000D03*
X-93750Y127250D03*
X-90000Y126000D03*
X-71000D03*
X-80000Y149000D03*
X-64000Y-108000D03*
X-48500Y29000D03*
X-48559Y32559D03*
X-60378Y28622D03*
X-39250Y109750D03*
Y89750D03*
X-53000Y139000D03*
X-47250Y129250D03*
Y145250D03*
X-19307Y-99500D03*
X-32000Y75500D03*
X-14500Y77000D03*
X-21000Y76000D03*
X-28500Y113000D03*
X-11250Y86250D03*
X-33500Y95500D03*
X-13000Y133000D03*
X2750Y-124250D03*
Y-118750D03*
X3500Y-87500D03*
X-2000Y-91000D03*
Y-87500D03*
X9000Y-88000D03*
X9500Y-92000D03*
X-4500Y45500D03*
X9000Y82500D03*
X3500Y80000D03*
X1500Y107500D03*
X-5500Y106500D03*
X-4500Y95000D03*
X-5000Y101000D03*
X22000Y84500D03*
X16649Y87851D03*
X5148D03*
X13000Y105000D03*
X12500Y109500D03*
X16000Y120000D03*
X-5500Y118500D03*
X8250Y136750D03*
X30250Y78750D03*
X24500Y80500D03*
X31858Y98642D03*
X28500Y103500D03*
X32000Y107000D03*
X48300Y84300D03*
X31000Y111000D03*
X28250Y142250D03*
X71000Y-119000D03*
X81165Y-111335D03*
X80500Y114000D03*
X64000Y115000D03*
X59250Y124750D03*
X97000Y-135500D03*
X109256Y-131744D03*
X97000Y-128500D03*
X92750Y-118750D03*
X94000Y111500D03*
X105846Y113346D03*
X113500Y111000D03*
X100500Y105000D03*
Y116500D03*
X114500Y-120500D03*
Y-105000D03*
X161500Y81000D03*
X155500D03*
X150000D03*
X144500D03*
Y87000D03*
G54D12*
X-56937Y5000D03*
Y8937D03*
Y12874D03*
Y16811D03*
Y20748D03*
X-53000D03*
Y16811D03*
Y12874D03*
Y8937D03*
Y5000D03*
X-56937Y24685D03*
Y28622D03*
Y32559D03*
Y36496D03*
Y40433D03*
X-53000D03*
Y36496D03*
Y32559D03*
Y28622D03*
Y24685D03*
G54D13*
X11752Y-17984D03*
Y58984D03*
X143248Y-17984D03*
Y58984D03*
X160394Y-122047D03*
Y122047D03*
G54D14*
X-4500Y22500D03*
X70750Y-139750D03*
G54D15*
G01X-90000Y126000D02*
Y132000D01*
X-108000Y150000D01*
G01X-52750Y127750D02*
X-49000Y124000D01*
X8000D01*
X28500Y103500D01*
G01X18250Y133250D02*
X34000Y117500D01*
Y109000D01*
X32000Y107000D01*
G01X31000Y111000D02*
Y116500D01*
X18250Y129250D01*
X-47250D01*
G01X-11250Y86250D02*
X-5750D01*
X13000Y105000D01*
G01X-33500Y95500D02*
X-28000Y90000D01*
X-4500D01*
X10600Y105100D01*
Y107600D01*
X12500Y109500D01*
G01X11752Y-30495D02*
Y-17984D01*
G01D02*
Y-5473D01*
G01X-759Y-17984D02*
X11752D01*
G01D02*
X24263D01*
G01X11752Y46473D02*
Y58984D01*
G01D02*
Y71496D01*
G01X-759Y58984D02*
X11752D01*
G01D02*
X24263D01*
G01X9000Y82500D02*
X20000D01*
X22000Y84500D01*
G01X3500Y80000D02*
X24000D01*
X24500Y80500D01*
G01X5148Y87851D02*
X16649D01*
G01X74394Y127969D02*
Y133000D01*
G01D02*
Y138031D01*
G01X69363Y133000D02*
X74394D01*
G01X100500Y105000D02*
Y116500D01*
G01X130737Y-17984D02*
X143248D01*
G01X130737Y58984D02*
X143248D01*
G01Y-30495D02*
Y-17984D01*
G01D02*
Y-5473D01*
G01Y-17984D02*
X155759D01*
G01X143248Y46473D02*
Y58984D01*
G01D02*
Y71496D01*
G01Y58984D02*
X155759D01*
G54D16*
G01X181111Y-145668D02*
G02X173237Y-153542I-7874J0D01*
G01X-173228D01*
Y-153543D01*
G02X-181102Y-145669I0J7874D01*
G01Y145708D01*
X-181111D01*
G02X-173237Y153582I7874J0D01*
G01X173228D01*
G01Y153591D02*
G02X181102Y145717I0J-7874D01*
G01Y-145668D01*
G54D17*
G01X-71000Y126000D02*
X-72556Y124444D01*
X-80500Y116500D01*
G01X-53000Y139000D02*
Y128000D01*
X-52750Y127750D01*
G01X-47250Y145250D02*
X-39500Y137500D01*
X-3000D01*
X1000Y133500D01*
X18000D01*
X18250Y133250D01*
G01X-19307Y-99500D02*
Y-101700D01*
X-19500Y-101893D01*
Y-117000D01*
X-12250Y-124250D01*
X2750D01*
G01X8250Y136750D02*
X10450D01*
X10700Y136500D01*
X24500D01*
X36250Y124750D01*
X59250D01*
G01D02*
X115356D01*
X123606Y133000D01*
G54D18*
G01X-115197Y57126D02*
X-132913D01*
G01X70750Y-139750D02*
X36500Y-105500D01*
Y29000D01*
X34500Y31000D01*
X-34500D01*
X-67500Y64000D01*
Y74500D01*
G01D02*
X-88500D01*
X-93250Y69750D01*
G01X-80500Y116500D02*
X-67500Y103500D01*
Y74500D01*
G01X-90000Y126000D02*
X-80500Y116500D01*
G01X-48500Y29000D02*
X-48878Y28622D01*
G01D02*
X-53000D01*
G01X-4500Y22500D02*
X-6500D01*
X-8685Y24685D01*
X-53000D01*
G01X-4500Y37000D02*
X-10500D01*
X-21000Y47500D01*
Y76000D01*
G01X2750Y-118750D02*
Y-98750D01*
X9500Y-92000D01*
G01X48500Y37000D02*
X-4500D01*
G01Y45500D02*
Y37000D01*
G01X92750Y-118750D02*
X86500Y-112500D01*
Y-110500D01*
X67000Y-91000D01*
Y34000D01*
X64000Y37000D01*
X48500D01*
G01X48300Y84300D02*
Y37200D01*
X48500Y37000D01*
G01X59250Y124750D02*
Y95250D01*
X48300Y84300D01*
M02*
