G04 ================== begin FILE IDENTIFICATION RECORD ==================*
G04 Layout Name:  D:/WorkPrj/XiaobinGao/ADIS16448/BRD/ADI_BASEBOARD_V1.brd*
G04 Film Name:    TOP*
G04 File Format:  Gerber RS274X*
G04 File Origin:  Cadence Allegro 16.6-2015-S088*
G04 Origin Date:  Thu May 17 11:22:17 2018*
G04 *
G04 Layer:  BOARD GEOMETRY/OUTLINE*
G04 Layer:  ETCH/TOP*
G04 Layer:  PIN/TOP*
G04 Layer:  VIA CLASS/TOP*
G04 *
G04 Offset:    (0.000 0.000)*
G04 Mirror:    No*
G04 Mode:      Positive*
G04 Rotation:  0*
G04 FullContactRelief:  No*
G04 UndefLineWidth:     5.000*
G04 ================== end FILE IDENTIFICATION RECORD ====================*
%FSLAX25Y25*MOIN*%
%IR0*IPPOS*OFA0.00000B0.00000*MIA0B0*SFA1.00000B1.00000*%
%ADD32R,.115X.095*%
%ADD33C,.23622*%
%ADD26R,.035433X.11811*%
%ADD39R,.11811X.064961*%
%ADD40R,.009843X.01378*%
%ADD11R,.19685X.07874*%
%ADD10R,.094488X.129921*%
%ADD25R,.295276X.098425*%
%ADD24O,.07X.026*%
%ADD41R,.062X.05*%
%ADD16R,.032X.035*%
%ADD15R,.035X.032*%
%ADD34C,.03*%
%ADD18R,.055X.045*%
%ADD21R,.045X.055*%
%ADD17C,.024*%
%ADD30R,.048X.071*%
%ADD14R,.06X.06*%
%ADD23R,.061024X.023622*%
%ADD36R,.047244X.011811*%
%ADD20R,.11811X.185039*%
%ADD35R,.011811X.047244*%
%ADD31C,.03937*%
%ADD27R,.433071X.472441*%
%ADD28C,.031496*%
%ADD12C,.086614*%
%ADD19R,.023622X.062992*%
%ADD22R,.047244X.044882*%
%ADD13R,.044882X.047244*%
%ADD37R,.015748X.031496*%
%ADD38R,.024016X.068898*%
%ADD29R,.062992X.059055*%
%ADD42C,.008*%
%ADD43C,.003937*%
%ADD44C,.01*%
%ADD45C,.02*%
%ADD46R,.045004X.042004*%
%ADD47R,.058004X.081004*%
G75*
%LPD*%
G75*
G36*
G01X-161000Y48500D02*
Y-27000D01*
X-156500Y-31500D01*
X-4500D01*
X-3500Y-32500D01*
Y-83000D01*
X-4000Y-83500D01*
X-23000D01*
X-24000Y-84500D01*
Y-102000D01*
X-23500Y-102500D01*
X-2000D01*
X0Y-100500D01*
X10000D01*
X16500Y-107000D01*
X59500D01*
X60500Y-108000D01*
Y-125000D01*
X60000Y-125500D01*
X56000D01*
X47500Y-117000D01*
X14500D01*
X11500Y-114000D01*
X-13500D01*
X-14000Y-113500D01*
Y-106500D01*
X-14500Y-106000D01*
X-27500D01*
X-28000Y-105500D01*
Y-83500D01*
X-48500D01*
X-49000Y-83000D01*
Y-65500D01*
X-50500Y-64000D01*
X-104500D01*
X-105500Y-63000D01*
Y-37500D01*
X-106500Y-36500D01*
X-159000D01*
X-161000Y-38500D01*
Y-63500D01*
X-159000Y-65500D01*
X-130000D01*
X-129500Y-66000D01*
Y-113500D01*
X-123000Y-120000D01*
Y-139000D01*
X-122000Y-140000D01*
X-96000D01*
X-95000Y-139000D01*
Y-132500D01*
X-94500Y-132000D01*
X-66000D01*
X-65500Y-132500D01*
Y-150500D01*
X-66500Y-151500D01*
X-170000D01*
X-178500Y-143000D01*
Y89000D01*
X-178000Y89500D01*
X-132500D01*
X-130500D01*
X-129000D01*
X-128500Y89000D01*
Y51500D01*
X-129500Y50500D01*
X-159000D01*
X-161000Y48500D01*
G37*
G36*
G01X-156500Y-39000D02*
Y-53000D01*
X-156000Y-53500D01*
X-125000D01*
X-124000Y-54500D01*
Y-111500D01*
X-123500Y-112000D01*
X-112500D01*
X-112000Y-111500D01*
Y-50500D01*
X-110500Y-49000D01*
Y-39000D01*
X-111000Y-38500D01*
X-156000D01*
X-156500Y-39000D01*
G37*
G36*
G01X-108000Y-104000D02*
X-97000D01*
X-96000Y-105000D01*
Y-123500D01*
X-95500Y-124000D01*
X-82500D01*
X-82000Y-124500D01*
Y-130500D01*
X-82500Y-131000D01*
X-97500D01*
X-98000Y-131500D01*
Y-133500D01*
X-98500Y-134000D01*
X-108000D01*
X-108500Y-133500D01*
Y-104500D01*
X-108000Y-104000D01*
G37*
G36*
G01X-79000Y-122500D02*
Y-130500D01*
X-78500Y-131000D01*
X-66000D01*
X-65500Y-130500D01*
Y-115000D01*
X-66000Y-114500D01*
X-74500D01*
X-75000Y-114000D01*
Y-103500D01*
X-73000Y-101500D01*
Y-83000D01*
X-72000Y-82000D01*
X-57500D01*
X-57000Y-82500D01*
Y-98500D01*
X-56000Y-99500D01*
X-38000D01*
X-37000Y-98500D01*
Y-85500D01*
X-37500Y-85000D01*
X-51500D01*
X-52000Y-84500D01*
Y-78500D01*
X-52500Y-78000D01*
X-85000D01*
X-85500Y-78500D01*
Y-102500D01*
X-85000Y-103000D01*
X-80000D01*
X-79500Y-103500D01*
Y-122000D01*
X-79000Y-122500D01*
G37*
G36*
G01X-48000Y-131500D02*
Y-142500D01*
X-47500Y-143000D01*
X51500D01*
X52500Y-142000D01*
Y-132000D01*
X53000Y-131500D01*
X61500D01*
X62000Y-132000D01*
Y-138000D01*
X62500Y-138500D01*
X67000D01*
X67500Y-138000D01*
Y-127500D01*
X67000Y-127000D01*
X53000D01*
X49000Y-131000D01*
X13000D01*
X9500Y-134500D01*
X-14500D01*
X-18000Y-131000D01*
X-47500D01*
X-48000Y-131500D01*
G37*
G36*
G01X-30500Y-85000D02*
X-35000D01*
X-35500Y-85500D01*
Y-106500D01*
X-36000Y-107000D01*
X-47500D01*
X-48000Y-107500D01*
Y-119000D01*
X-47500Y-119500D01*
X-25500D01*
X-15000Y-130000D01*
X-7000D01*
X-6500Y-129500D01*
Y-115500D01*
X-7000Y-115000D01*
X-15500D01*
X-16000Y-114500D01*
Y-107500D01*
X-16500Y-107000D01*
X-29500D01*
X-30000Y-106500D01*
Y-85500D01*
X-30500Y-85000D01*
G37*
G36*
G01X-15000Y-86000D02*
Y-98500D01*
X-14500Y-99000D01*
X-2500D01*
X-1000Y-97500D01*
X10500D01*
X11000Y-97000D01*
Y-86000D01*
X10500Y-85500D01*
X-14500D01*
X-15000Y-86000D01*
G37*
G36*
G01X-28318Y93693D02*
G03X-30516Y97914I-1682J1807D01*
G02X-31000Y98305I-84J391D01*
G01Y134500D01*
X-29500Y136000D01*
X-6500D01*
X-5500Y135000D01*
Y133100D01*
X-9500D01*
Y128900D01*
X-5500D01*
Y126000D01*
X0Y120500D01*
Y114153D01*
X-15760D01*
X-21128Y119521D01*
Y125924D01*
X-22828D01*
Y128400D01*
X-22000D01*
Y132600D01*
X-26500D01*
Y128400D01*
X-25450D01*
Y127503D01*
X-25228Y127281D01*
Y125924D01*
X-26928D01*
Y117824D01*
X-22825D01*
X-16754Y111753D01*
X-12765D01*
G02X-12483Y111070I0J-400D01*
G01X-13376Y110176D01*
X-17479D01*
Y102076D01*
X-15950D01*
Y99600D01*
X-17000D01*
Y95400D01*
X-12500D01*
Y99600D01*
X-13550D01*
Y101008D01*
X-13379Y101179D01*
Y102076D01*
X-11679D01*
Y108479D01*
X-10374Y109784D01*
X0D01*
Y94500D01*
X-1500Y93000D01*
X-28046D01*
G02X-28318Y93693I0J400D01*
G37*
G36*
G01X165000Y91000D02*
X131000D01*
X130000Y90000D01*
Y46500D01*
X131000Y45500D01*
X164500D01*
X166000Y47000D01*
Y90000D01*
X165000Y91000D01*
G37*
G36*
G01X170500Y95500D02*
X147000D01*
X146500Y96000D01*
Y146500D01*
X148500Y148500D01*
X178000D01*
X180000Y146500D01*
Y-147000D01*
X175500Y-151500D01*
X146500D01*
X145500Y-150500D01*
Y-111500D01*
X171500Y-85500D01*
Y94500D01*
X170500Y95500D01*
G37*
%LPC*%
G75*
G54D46*
X-18750Y130500D03*
X-20250Y97500D03*
G54D47*
X-14579Y121874D03*
X-24028Y106126D03*
%LPD*%
G75*
G54D10*
X-128992Y-127000D03*
X-103008D03*
G54D20*
X-79000Y-91913D03*
Y-53724D03*
G54D11*
X-141575Y-69646D03*
Y83504D03*
G54D12*
X-150630Y-43268D03*
X-132913D03*
X-150630Y-25551D03*
X-132913D03*
X-150630Y-12559D03*
X-132913D03*
X-150630Y433D03*
X-132913D03*
X-150630Y13425D03*
X-132913D03*
X-150630Y26417D03*
X-132913D03*
X-150630Y39410D03*
X-132913D03*
X-150630Y57126D03*
X-132913D03*
X-115197Y-43268D03*
Y-25551D03*
Y-12559D03*
Y433D03*
Y13425D03*
Y26417D03*
Y39410D03*
Y57126D03*
X74394Y133000D03*
X84236D03*
X94079D03*
X103921D03*
X113764D03*
X123606D03*
G54D30*
X-14579Y106126D03*
X-24028D03*
X-14579Y121874D03*
X-24028D03*
G54D21*
X-77300Y-108000D03*
X-69700D03*
G54D13*
X-125740Y145000D03*
Y138000D03*
X-118260Y145000D03*
Y138000D03*
G54D22*
X-94500Y44240D03*
Y36760D03*
X-87500Y44240D03*
Y36760D03*
X-80500Y44240D03*
Y36760D03*
X-73500Y44240D03*
Y36760D03*
X-35500Y44740D03*
Y37260D03*
X-28500Y44740D03*
Y37260D03*
G54D31*
X-30000Y95500D03*
X29500Y136500D03*
X122500Y-111000D03*
G54D40*
X103500Y113346D03*
X94000D03*
X84000D03*
X103500Y116654D03*
X94000D03*
X84000D03*
X113500Y113346D03*
Y116654D03*
G54D23*
X-93193Y81000D03*
Y86000D03*
Y91000D03*
Y96000D03*
Y101000D03*
Y106000D03*
Y111000D03*
Y116000D03*
X-54807Y81000D03*
Y111000D03*
Y106000D03*
Y101000D03*
Y96000D03*
Y91000D03*
Y86000D03*
Y116000D03*
G54D14*
X-115000Y-107500D03*
X-103000D03*
X4000Y-104000D03*
Y-92000D03*
X160500Y98500D03*
Y86500D03*
G54D41*
X151000Y98500D03*
Y87500D03*
G54D32*
X22000Y-136050D03*
Y-111950D03*
X45000Y-136050D03*
Y-111950D03*
G54D42*
G01X-93193Y96000D02*
X-101500D01*
X-106500Y91000D01*
Y37377D01*
X-110877Y33000D01*
X-126331D01*
X-132913Y26417D01*
G01Y39410D02*
X-125500Y46823D01*
Y101000D01*
X-140000Y115500D01*
Y141500D01*
X-139000Y142500D01*
X-128500D01*
X-126000Y145000D01*
X-125740D01*
G01X-115197Y39410D02*
X-123000Y47213D01*
Y102000D01*
X-137500Y116500D01*
Y139500D01*
X-136500Y140500D01*
X-128500D01*
X-126000Y138000D01*
X-125740D01*
G01X-115197Y26417D02*
X-104500Y37114D01*
Y89000D01*
X-102500Y91000D01*
X-93193D01*
G01Y106000D02*
X-106250D01*
G01X-93193Y101000D02*
X-102600D01*
X-103600Y100000D01*
X-106250D01*
G01X-47250Y149000D02*
X-39500D01*
X-37500Y147000D01*
Y120300D01*
X-38300Y119500D01*
X-111000D01*
X-114400Y116100D01*
Y108500D01*
X-111900Y106000D01*
X-111750D01*
G01X-47250Y133000D02*
X-42500D01*
X-41000Y131500D01*
Y122500D01*
X-42400Y121100D01*
X-111663D01*
X-111763Y121000D01*
X-113500D01*
X-116500Y118000D01*
Y102100D01*
X-114400Y100000D01*
X-111750D01*
G01X-98000Y127250D02*
X-93750D01*
G01X-118260Y145000D02*
X-118000D01*
X-116000Y143000D01*
X-102000D01*
X-100625Y144375D01*
X-100500Y144250D01*
X-98000D01*
G01X-85700Y139000D02*
X-95250D01*
X-95500Y138750D01*
X-98000D01*
G01Y132750D02*
Y138750D01*
G01X-118260Y138000D02*
X-118000D01*
X-116000Y140000D01*
X-101750D01*
X-100500Y138750D01*
X-98000D01*
G01Y144250D02*
Y147250D01*
X-98250Y147500D01*
Y150000D01*
G01X-85700Y144000D02*
X-95250D01*
X-95500Y144250D01*
X-98000D01*
G01X-103750Y150000D02*
X-108000D01*
G01X-56937Y12874D02*
X-75874D01*
X-80500Y17500D01*
Y36760D01*
G01X-56937Y8937D02*
X-83437D01*
X-87500Y13000D01*
Y36760D01*
G01X-53000Y8937D02*
X-47937D01*
X-46000Y7000D01*
Y2542D01*
X-49152Y-610D01*
X-91348D01*
X-94500Y2542D01*
Y36760D01*
G01X-56937Y16811D02*
X-69311D01*
X-73500Y21000D01*
Y36760D01*
G01Y44240D02*
X-73382D01*
X-60122Y57500D01*
X-19000D01*
X3500Y80000D01*
G01X-80500Y44240D02*
X-80382D01*
X-65122Y59500D01*
X-20500D01*
X5000Y85000D01*
X12000D01*
X14142Y87142D01*
Y93268D01*
G01X-94500Y44240D02*
X-94382D01*
X-72622Y66000D01*
X-21000D01*
X10500Y97500D01*
X14559D01*
X16110Y95949D01*
Y93268D01*
G01X-87500Y44240D02*
X-87382D01*
X-68622Y63000D01*
X-19703D01*
X5148Y87851D01*
G01X-87750Y73500D02*
Y69750D01*
G01X-93193Y81000D02*
Y76057D01*
X-93250Y76000D01*
Y73500D01*
G01D02*
Y69750D01*
G01X-93193Y86000D02*
X-86000D01*
G01X-80250Y126000D02*
X-75500D01*
G01X-85750D02*
Y131750D01*
X-85700Y131800D01*
Y134000D01*
G01X-85750Y126000D02*
X-90000D01*
G01X-85700Y149000D02*
X-80000D01*
G01X-53000Y16811D02*
X-39689D01*
X-35500Y21000D01*
Y37260D01*
G01X-53000Y12874D02*
X-50525D01*
X-50399Y13000D01*
X-32500D01*
X-28500Y17000D01*
Y37260D01*
G01X-54807Y91000D02*
X-60500D01*
X-62000Y89500D01*
Y77500D01*
X-60500Y76000D01*
X-40750D01*
X-39250Y77500D01*
Y80000D01*
G01X-44750D02*
X-49856D01*
X-50856Y81000D01*
X-54807D01*
G01X-39250Y106000D02*
Y109750D01*
G01Y86000D02*
Y89750D01*
G01X-54807Y101000D02*
X-44400D01*
X-39400Y96000D01*
X-39250D01*
G01X-44750D02*
X-54807D01*
G01X-44750Y86000D02*
X-54807D01*
G01X-44750Y106000D02*
X-54807D01*
G01X-63300Y139000D02*
Y144000D01*
G01X-52750Y133000D02*
X-57900D01*
X-58900Y134000D01*
X-63300D01*
G01X-47250Y133000D02*
Y129250D01*
G01X-52750Y149000D02*
X-63300D01*
G01X-47250D02*
Y145250D01*
G01X-35500Y44740D02*
Y47884D01*
X-28384Y55000D01*
X-17000D01*
X7515Y79515D01*
Y81015D01*
X9000Y82500D01*
G01X-28500Y44740D02*
X-28382D01*
X-20622Y52500D01*
X-15000D01*
X20047Y87547D01*
Y93268D01*
G01X-32000Y80750D02*
Y75500D01*
G01X-14500Y80750D02*
Y77000D01*
G01X-26500Y80750D02*
X-21000D01*
G01D02*
Y76000D01*
G01X-20250Y95200D02*
Y97500D01*
G01D02*
Y99800D01*
G01X-22700Y97500D02*
X-20250D01*
G01D02*
X-17800D01*
G01X-24028Y101876D02*
Y106126D01*
G01D02*
Y110376D01*
G01X-27128Y106126D02*
X-24028D01*
G01D02*
X-20928D01*
G01X-14500Y86250D02*
X-11250D01*
G01X-14500D02*
X-21000D01*
G01X6268Y110984D02*
X-10871D01*
X-14579Y107276D01*
Y106126D01*
G01X-14750Y97500D02*
Y101505D01*
X-14579Y101676D01*
Y106126D01*
G01X-30000Y95500D02*
Y90900D01*
X-32000Y88900D01*
Y86250D01*
G01X-26500D02*
X-32000D01*
G01X-33500Y95500D02*
X-30000D01*
G01X6268Y112953D02*
X-16257D01*
X-24028Y120724D01*
Y121874D01*
G01X-18750Y128200D02*
Y130500D01*
G01D02*
Y132800D01*
G01X-21200Y130500D02*
X-18750D01*
G01D02*
X-16300D01*
G01X-7250Y128700D02*
Y131000D01*
G01D02*
Y133300D01*
G01X-9700Y131000D02*
X-7250D01*
G01X-14579Y117624D02*
Y121874D01*
G01D02*
Y126124D01*
G01X-17679Y121874D02*
X-14579D01*
G01D02*
X-11479D01*
G01X-24028D02*
Y127778D01*
X-24250Y128000D01*
Y130500D01*
G01X6268Y107047D02*
X1953D01*
X1500Y107500D01*
G01X22000Y84500D02*
Y89990D01*
X22016Y90006D01*
Y93268D01*
G01X16649Y87851D02*
X18079Y89282D01*
Y93268D01*
G01X13000Y105000D02*
X9609D01*
X9530Y105079D01*
X6268D01*
G01Y109016D02*
X12016D01*
X12500Y109500D01*
G01X18000Y142250D02*
X12000D01*
G01X23500D02*
X18000D01*
G01X14142Y126732D02*
Y121858D01*
X16000Y120000D01*
G01X20047Y126732D02*
X20000Y126780D01*
Y130500D01*
X23500Y134000D01*
Y136750D01*
G01X12173Y126732D02*
Y133927D01*
X12000Y134100D01*
Y136750D01*
G01X18000D02*
X12000D01*
G01X6268Y120827D02*
X1673D01*
X-1750Y124250D01*
Y131000D01*
G01X42500Y76700D02*
X36550D01*
X34500Y78750D01*
G01D02*
X30250D01*
G01X23984Y93268D02*
Y90006D01*
X23934Y89956D01*
Y88066D01*
X24500Y87500D01*
Y80500D01*
G01X94000Y116654D02*
X92608D01*
X92454Y116500D01*
X91000D01*
X85500Y111000D01*
X51500D01*
X45610Y116890D01*
X39732D01*
G01X31858Y93268D02*
Y98642D01*
G01X28500Y103500D02*
X32923D01*
X36470Y107047D01*
X39732D01*
G01Y109016D02*
X47984D01*
X51000Y106000D01*
X99500D01*
X100500Y105000D01*
G01X32000Y107000D02*
X34016Y109016D01*
X39732D01*
G01X34500Y84250D02*
Y89332D01*
X33827Y90006D01*
Y93268D01*
G01X42500Y84300D02*
X37050D01*
X37000Y84250D01*
X34500D01*
G01X42500Y84300D02*
X48300D01*
G01X39732Y110984D02*
X49016D01*
X52000Y108000D01*
X108000D01*
X109000Y109000D01*
Y115500D01*
X110000Y116500D01*
X111954D01*
X112108Y116654D01*
X113500D01*
G01X31000Y111000D02*
X36454D01*
X36470Y110984D01*
X39732D01*
G01X23500Y142250D02*
X28250D01*
G01X33827Y126732D02*
Y131700D01*
X34627Y132500D01*
X56000D01*
X71846Y116654D01*
X84000D01*
G01X29500Y136500D02*
X26250D01*
X26000Y136750D01*
X23500D01*
G01X39732Y120827D02*
X50927D01*
X51100Y121000D01*
X53750D01*
G01X39732Y118858D02*
X47242D01*
X51100Y115000D01*
X53750D01*
G01X59250D02*
X64000D01*
G01X80500Y114000D02*
X81154Y113346D01*
X84000D01*
G01X59250Y121000D02*
Y124750D01*
G01X94000Y113346D02*
Y111500D01*
G01Y116654D02*
Y127690D01*
X94079Y127769D01*
Y133000D01*
G01X103500Y113346D02*
X105846D01*
G01X84000Y116654D02*
Y127533D01*
X84236Y127769D01*
Y133000D01*
G01X103500Y116654D02*
Y127348D01*
X103921Y127769D01*
Y133000D01*
G01X100500Y116500D02*
X103346D01*
X103500Y116654D01*
G01X113500Y113346D02*
Y111000D01*
G01Y116654D02*
Y127505D01*
X113764Y127769D01*
Y133000D01*
G54D15*
X-106250Y100000D03*
X-111750D03*
X-106250Y106000D03*
X-111750D03*
X-98250Y150000D03*
X-103750D03*
X-87750Y73500D03*
X-93250D03*
X-85750Y126000D03*
X-80250D03*
X-67750D03*
X-39250Y80000D03*
X-44750D03*
Y106000D03*
X-39250D03*
Y96000D03*
X-44750D03*
Y86000D03*
X-39250D03*
X-62250Y126000D03*
X-47250Y133000D03*
X-52750D03*
X-47250Y149000D03*
X-52750D03*
X-14750Y97500D03*
X-20250D03*
X-7250Y131000D03*
X-24250Y130500D03*
X-18750D03*
X-1750Y131000D03*
X53750Y115000D03*
Y121000D03*
X65250Y-135500D03*
X70750D03*
X77250D03*
X82750D03*
X59250Y115000D03*
Y121000D03*
G54D24*
X-85700Y134000D03*
Y139000D03*
Y144000D03*
X-63300D03*
Y139000D03*
Y134000D03*
X-85700Y149000D03*
X-63300D03*
G54D33*
X11752Y-17984D03*
Y58984D03*
X143248Y-17984D03*
Y58984D03*
X160394Y-122047D03*
Y122047D03*
G54D43*
G01X181111Y-145668D02*
G02X173237Y-153542I-7874J0D01*
G01X-173228D01*
Y-153543D01*
G02X-181102Y-145669I0J7874D01*
G01Y145708D01*
X-181111D01*
G02X-173237Y153582I7874J0D01*
G01X173228D01*
G01Y153591D02*
G02X181102Y145717I0J-7874D01*
G01Y-145668D01*
G54D34*
X-4500Y22500D03*
X70750Y-139750D03*
G54D16*
X-98000Y127250D03*
Y132750D03*
Y144250D03*
Y138750D03*
X-14500Y80750D03*
X-32000D03*
X-26500D03*
X-21000D03*
X-14500Y86250D03*
X-32000D03*
X-26500D03*
X-21000D03*
X7500Y-136250D03*
Y-130750D03*
X1500Y-136250D03*
Y-130750D03*
X7500Y-124250D03*
Y-118750D03*
X18000Y136750D03*
Y142250D03*
X12000Y136750D03*
Y142250D03*
X23500D03*
Y136750D03*
X34500Y84250D03*
Y78750D03*
X59000Y-129250D03*
X65000D03*
X71000D03*
X59000Y-123750D03*
X65000D03*
X71000D03*
X97000Y-124250D03*
Y-118750D03*
X103500Y-119250D03*
Y-124750D03*
X114500Y-116750D03*
Y-111250D03*
G54D25*
X-32500Y-136417D03*
Y-113189D03*
G54D44*
G01X-67962Y-134800D02*
X-63300D01*
X-61500Y-133000D01*
Y-110500D01*
X-64000Y-108000D01*
G01X-67962Y-134800D02*
X-69000D01*
G01X-63300Y139000D02*
X-71000D01*
X-72000Y138000D01*
Y131500D01*
X-70500Y130000D01*
X-63500D01*
X-62250Y128750D01*
Y126000D01*
G01X-67750D02*
X-71000D01*
G01X-56937Y24685D02*
Y20748D01*
G01X-53000Y32559D02*
Y28622D01*
G01Y32559D02*
X-48559D01*
G01X-53000Y24685D02*
X-56937D01*
G01X-63300Y139000D02*
X-53000D01*
G01X7500Y-124250D02*
X2750D01*
G54D35*
X22016Y93268D03*
X20047D03*
X18079D03*
X16110D03*
X14142D03*
X12173D03*
Y126732D03*
X14142D03*
X16110D03*
X18079D03*
X20047D03*
X22016D03*
X33827Y93268D03*
X31858D03*
X29890D03*
X27921D03*
X25953D03*
X23984D03*
Y126732D03*
X25953D03*
X27921D03*
X29890D03*
X31858D03*
X33827D03*
G54D17*
X-108000Y150000D03*
X-87750Y69750D03*
X-93250D03*
X-86000Y86000D03*
X-75500Y126000D03*
X-93750Y127250D03*
X-90000Y126000D03*
X-71000D03*
X-80000Y149000D03*
X-64000Y-108000D03*
X-48500Y29000D03*
X-48559Y32559D03*
X-60378Y28622D03*
X-39250Y109750D03*
Y89750D03*
X-53000Y139000D03*
X-47250Y129250D03*
Y145250D03*
X-19307Y-99500D03*
X-32000Y75500D03*
X-14500Y77000D03*
X-21000Y76000D03*
X-28500Y113000D03*
X-11250Y86250D03*
X-33500Y95500D03*
X-13000Y133000D03*
X2750Y-124250D03*
Y-118750D03*
X3500Y-87500D03*
X-2000Y-91000D03*
Y-87500D03*
X9000Y-88000D03*
X9500Y-92000D03*
X-4500Y45500D03*
X9000Y82500D03*
X3500Y80000D03*
X1500Y107500D03*
X-5500Y106500D03*
X-4500Y95000D03*
X-5000Y101000D03*
X22000Y84500D03*
X16649Y87851D03*
X5148D03*
X13000Y105000D03*
X12500Y109500D03*
X16000Y120000D03*
X-5500Y118500D03*
X8250Y136750D03*
X30250Y78750D03*
X24500Y80500D03*
X31858Y98642D03*
X28500Y103500D03*
X32000Y107000D03*
X48300Y84300D03*
X31000Y111000D03*
X28250Y142250D03*
X71000Y-119000D03*
X81165Y-111335D03*
X80500Y114000D03*
X64000Y115000D03*
X59250Y124750D03*
X97000Y-135500D03*
X109256Y-131744D03*
X97000Y-128500D03*
X92750Y-118750D03*
X94000Y111500D03*
X105846Y113346D03*
X113500Y111000D03*
X100500Y105000D03*
Y116500D03*
X114500Y-120500D03*
Y-105000D03*
X161500Y81000D03*
X155500D03*
X150000D03*
X144500D03*
Y87000D03*
G54D26*
X-39386Y-91941D03*
X-32693D03*
X-26000D03*
X-19307D03*
X-12614D03*
G54D45*
G01X-77744Y-127500D02*
X-73550D01*
X-73250Y-127200D01*
X-69000D01*
G01X-69700Y-108000D02*
X-64000D01*
G01X-56937Y28622D02*
X-60378D01*
G01X1500Y-136250D02*
X-16069D01*
X-16236Y-136417D01*
X-32500D01*
G01X-19307Y-91941D02*
Y-99500D01*
G01X7500Y-130750D02*
Y-124250D01*
G01X1500Y-130750D02*
X7500D01*
G01X22000Y-136050D02*
X45000D01*
G01X7500Y-136250D02*
X1500D01*
G01X22000Y-136050D02*
X10800D01*
X10600Y-136250D01*
X7500D01*
G01Y-118750D02*
X2750D01*
G01X-4500Y22500D02*
Y45500D01*
G01X12000Y136750D02*
X8250D01*
G01X-1750Y131000D02*
X2500D01*
X8250Y136750D01*
G01X45000Y-136050D02*
X46000D01*
X52800Y-129250D01*
X59000D01*
G01X65000D02*
Y-135250D01*
X65250Y-135500D01*
G01X59000Y-129250D02*
X65000D01*
G01X82750Y-135500D02*
X88244D01*
G01X122500Y-111000D02*
X125000Y-113500D01*
Y-144000D01*
X123500Y-145500D01*
X79500D01*
X77250Y-143250D01*
Y-135500D01*
G01X70750D02*
X77250D01*
G01X70750D02*
Y-129500D01*
X71000Y-129250D01*
G01X70750Y-135500D02*
Y-139750D01*
G01X71000Y-123750D02*
X65000D01*
G01X71000D02*
Y-119000D01*
G01X87945Y-111335D02*
X81165D01*
G01X93756Y-135500D02*
X97000D01*
G01X109256D02*
Y-131744D01*
G01X97000Y-124250D02*
Y-128500D01*
G01X103744Y-135500D02*
Y-128244D01*
X103500Y-128000D01*
Y-124750D01*
G01X87945Y-111335D02*
Y-97654D01*
X94343Y-91256D01*
X97000D01*
G01X106055Y-111335D02*
X111315D01*
X111400Y-111250D01*
X114500D01*
G01X97000Y-111335D02*
Y-118750D01*
G01X103500Y-119250D02*
X97500D01*
X97000Y-118750D01*
G01D02*
X92750D01*
G01X114500Y-116750D02*
Y-120500D01*
G01Y-111250D02*
X118781D01*
X119031Y-111000D01*
X122500D01*
G01X114500Y-111250D02*
Y-105000D01*
G54D27*
X-26000Y-59658D03*
G54D36*
X6268Y99173D03*
Y101142D03*
Y103110D03*
Y105079D03*
Y107047D03*
Y109016D03*
Y110984D03*
Y112953D03*
Y114921D03*
Y116890D03*
Y118858D03*
Y120827D03*
X39732Y112953D03*
Y110984D03*
Y109016D03*
Y107047D03*
Y105079D03*
Y103110D03*
Y101142D03*
Y99173D03*
Y120827D03*
Y118858D03*
Y116890D03*
Y114921D03*
G54D18*
X-92000Y-127200D03*
Y-134800D03*
X-69000Y-127200D03*
Y-134800D03*
X42500Y84300D03*
Y76700D03*
G54D37*
X109256Y-135500D03*
X103744D03*
X93756D03*
X88244D03*
G54D19*
X-83256Y-127500D03*
X-77744D03*
G54D28*
X-56937Y5000D03*
Y8937D03*
Y12874D03*
Y16811D03*
Y20748D03*
X-53000D03*
Y16811D03*
Y12874D03*
Y8937D03*
Y5000D03*
X-56937Y24685D03*
Y28622D03*
Y32559D03*
Y36496D03*
Y40433D03*
X-53000D03*
Y36496D03*
Y32559D03*
Y28622D03*
Y24685D03*
G54D29*
X-10500Y-126571D03*
Y-110429D03*
G54D38*
X106055Y-111335D03*
X97000D03*
X87945D03*
G54D39*
X97000Y-91256D03*
M02*
