G04 ================== begin FILE IDENTIFICATION RECORD ==================*
G04 Layout Name:  D:/WorkPrj/XiaobinGao/ADIS16448/BRD/ADI_BASEBOARD_V1.brd*
G04 Film Name:    TOP_SILKSCREEN*
G04 File Format:  Gerber RS274X*
G04 File Origin:  Cadence Allegro 16.6-2015-S088*
G04 Origin Date:  Thu May 17 11:22:17 2018*
G04 *
G04 Layer:  REF DES/SILKSCREEN_TOP*
G04 Layer:  PACKAGE GEOMETRY/SILKSCREEN_TOP*
G04 Layer:  BOARD GEOMETRY/SILKSCREEN_TOP*
G04 Layer:  BOARD GEOMETRY/OUTLINE*
G04 *
G04 Offset:    (0.000 0.000)*
G04 Mirror:    No*
G04 Mode:      Positive*
G04 Rotation:  0*
G04 FullContactRelief:  No*
G04 UndefLineWidth:     5.000*
G04 ================== end FILE IDENTIFICATION RECORD ====================*
%FSLAX25Y25*MOIN*%
%IR0*IPPOS*OFA0.00000B0.00000*MIA0B0*SFA1.00000B1.00000*%
%ADD10C,.004*%
%ADD11C,.005*%
%ADD12C,.006*%
%ADD13C,.005906*%
%ADD14C,.00787*%
%ADD15C,.003937*%
%ADD16C,.005909*%
%ADD17C,.009843*%
%ADD18C,.007874*%
G75*
%LPD*%
G75*
G36*
G01X13200Y-139145D02*
X15956D01*
Y-141094D01*
X28031D01*
Y-139145D01*
X30800D01*
Y-144000D01*
X13200D01*
Y-139145D01*
G37*
G36*
G01X36200D02*
X38956D01*
Y-141094D01*
X51031D01*
Y-139145D01*
X53800D01*
Y-144000D01*
X36200D01*
Y-139145D01*
G37*
G54D10*
G01X-27500Y95500D02*
G03I-2500J0D01*
G01X32000Y136500D02*
G03I-2500J0D01*
G01X125000Y-111000D02*
G03I-2500J0D01*
G54D11*
G01X-98500Y-112000D02*
Y-103000D01*
X-119500D01*
Y-112000D01*
X-98501D01*
G01X8500Y-87500D02*
X-500D01*
Y-108500D01*
X8500D01*
Y-87501D01*
G01X156000Y82000D02*
X165000D01*
Y103000D01*
X156000D01*
Y82001D01*
G01X-82075Y-130650D02*
X-78925D01*
Y-124350D01*
X-82075D01*
Y-130650D01*
G54D12*
G01X-129287Y-113000D02*
Y-110500D01*
X-128753D01*
X-128540Y-110625D01*
X-128380Y-110792D01*
X-128247Y-111042D01*
X-128140Y-111333D01*
X-128113Y-111750D01*
X-128140Y-112167D01*
X-128247Y-112458D01*
X-128380Y-112708D01*
X-128540Y-112875D01*
X-128753Y-113000D01*
X-129287D01*
G01X-126887Y-112500D02*
X-126727Y-112792D01*
X-126513Y-112958D01*
X-126273Y-113000D01*
X-126060Y-112958D01*
X-125847Y-112750D01*
X-125713Y-112500D01*
X-125687Y-112250D01*
X-125740Y-111958D01*
X-125927Y-111750D01*
X-126113Y-111667D01*
X-126353D01*
G01X-126113D02*
X-125953Y-111542D01*
X-125820Y-111333D01*
X-125767Y-111083D01*
X-125820Y-110833D01*
X-125953Y-110625D01*
X-126193Y-110500D01*
X-126433Y-110542D01*
X-126673Y-110708D01*
G01X-123900Y-113000D02*
Y-110500D01*
X-124220Y-111000D01*
G01Y-113000D02*
X-123580D01*
G01X-153233Y91000D02*
X-153100Y90750D01*
X-152940Y90583D01*
X-152753Y90500D01*
X-152540Y90583D01*
X-152380Y90750D01*
X-152220Y91000D01*
X-152167Y91333D01*
Y93000D01*
G01X-150887Y91000D02*
X-150727Y90708D01*
X-150513Y90542D01*
X-150273Y90500D01*
X-150060Y90542D01*
X-149847Y90750D01*
X-149713Y91000D01*
X-149687Y91250D01*
X-149740Y91542D01*
X-149927Y91750D01*
X-150113Y91833D01*
X-150353D01*
G01X-150113D02*
X-149953Y91958D01*
X-149820Y92167D01*
X-149767Y92417D01*
X-149820Y92667D01*
X-149953Y92875D01*
X-150193Y93000D01*
X-150433Y92958D01*
X-150673Y92792D01*
G01X-135733Y143500D02*
Y146000D01*
X-135067D01*
X-134853Y145875D01*
X-134720Y145708D01*
X-134667Y145375D01*
X-134720Y145042D01*
X-134880Y144833D01*
X-135067Y144708D01*
X-135733D01*
G01X-135067D02*
X-134667Y143500D01*
G01X-132800D02*
Y146000D01*
X-133120Y145500D01*
G01Y143500D02*
X-132480D01*
G01X-130080D02*
Y146000D01*
X-131067Y144208D01*
X-129733D01*
G01X-133733Y136500D02*
Y139000D01*
X-133067D01*
X-132853Y138875D01*
X-132720Y138708D01*
X-132667Y138375D01*
X-132720Y138042D01*
X-132880Y137833D01*
X-133067Y137708D01*
X-133733D01*
G01X-133067D02*
X-132667Y136500D01*
G01X-130853D02*
X-130800Y137042D01*
X-130720Y137500D01*
X-130613Y137917D01*
X-130480Y138375D01*
X-130267Y139000D01*
X-131333D01*
G01X-96013Y-119708D02*
X-96173Y-119583D01*
X-96360Y-119500D01*
X-96573D01*
X-96813Y-119625D01*
X-97000Y-119833D01*
X-97133Y-120083D01*
X-97240Y-120500D01*
X-97267Y-120875D01*
X-97213Y-121250D01*
X-97133Y-121500D01*
X-96973Y-121750D01*
X-96787Y-121917D01*
X-96600Y-122000D01*
X-96413D01*
X-96227Y-121917D01*
X-96067Y-121792D01*
X-95933Y-121625D01*
G01X-94200Y-122000D02*
Y-119500D01*
X-94520Y-120000D01*
G01Y-122000D02*
X-93880D01*
G01X-92307Y-119917D02*
X-92147Y-119667D01*
X-91960Y-119542D01*
X-91747Y-119500D01*
X-91480Y-119583D01*
X-91293Y-119792D01*
X-91240Y-120042D01*
X-91267Y-120292D01*
X-91373Y-120500D01*
X-91907Y-120917D01*
X-92147Y-121208D01*
X-92307Y-121625D01*
X-92360Y-122000D01*
X-91240D01*
G01X-89080D02*
Y-119500D01*
X-90067Y-121292D01*
X-88733D01*
G01X-124207Y-105500D02*
Y-103000D01*
X-123193D01*
G01X-123567Y-104208D02*
X-124207D01*
G01X-121300Y-105500D02*
Y-103000D01*
X-121620Y-103500D01*
G01Y-105500D02*
X-120980D01*
G01X-99613Y-43708D02*
X-99773Y-43583D01*
X-99960Y-43500D01*
X-100173D01*
X-100413Y-43625D01*
X-100600Y-43833D01*
X-100733Y-44083D01*
X-100840Y-44500D01*
X-100867Y-44875D01*
X-100813Y-45250D01*
X-100733Y-45500D01*
X-100573Y-45750D01*
X-100387Y-45917D01*
X-100200Y-46000D01*
X-100013D01*
X-99827Y-45917D01*
X-99667Y-45792D01*
X-99533Y-45625D01*
G01X-97800Y-46000D02*
Y-43500D01*
X-98120Y-44000D01*
G01Y-46000D02*
X-97480D01*
G01X-95907Y-44958D02*
X-95720Y-44667D01*
X-95560Y-44500D01*
X-95347Y-44417D01*
X-95160Y-44500D01*
X-95027Y-44667D01*
X-94920Y-44917D01*
X-94893Y-45208D01*
X-94920Y-45458D01*
X-95027Y-45708D01*
X-95187Y-45917D01*
X-95373Y-46000D01*
X-95587Y-45917D01*
X-95773Y-45667D01*
X-95880Y-45292D01*
X-95907Y-44875D01*
X-95853Y-44333D01*
X-95773Y-44042D01*
X-95640Y-43750D01*
X-95453Y-43542D01*
X-95267Y-43500D01*
X-95080Y-43583D01*
X-94947Y-43792D01*
G01X-121933Y98500D02*
Y101000D01*
X-121267D01*
X-121053Y100875D01*
X-120920Y100708D01*
X-120867Y100375D01*
X-120920Y100042D01*
X-121080Y99833D01*
X-121267Y99708D01*
X-121933D01*
G01X-121267D02*
X-120867Y98500D01*
G01X-119000D02*
Y101000D01*
X-119320Y100500D01*
G01Y98500D02*
X-118680D01*
G01X-116600Y101000D02*
X-116813Y100917D01*
X-116973Y100708D01*
X-117080Y100458D01*
X-117160Y100125D01*
X-117187Y99750D01*
X-117160Y99375D01*
X-117080Y99042D01*
X-116973Y98792D01*
X-116813Y98583D01*
X-116600Y98500D01*
X-116387Y98583D01*
X-116227Y98792D01*
X-116120Y99042D01*
X-116040Y99375D01*
X-116013Y99750D01*
X-116040Y100125D01*
X-116120Y100458D01*
X-116227Y100708D01*
X-116387Y100917D01*
X-116600Y101000D01*
G01X-103600Y102600D02*
Y97400D01*
X-114400D01*
G01X-103600Y102600D02*
X-114400D01*
Y97400D01*
G01X-121933Y104500D02*
Y107000D01*
X-121267D01*
X-121053Y106875D01*
X-120920Y106708D01*
X-120867Y106375D01*
X-120920Y106042D01*
X-121080Y105833D01*
X-121267Y105708D01*
X-121933D01*
G01X-121267D02*
X-120867Y104500D01*
G01X-119000D02*
Y107000D01*
X-119320Y106500D01*
G01Y104500D02*
X-118680D01*
G01X-117107Y106583D02*
X-116947Y106833D01*
X-116760Y106958D01*
X-116547Y107000D01*
X-116280Y106917D01*
X-116093Y106708D01*
X-116040Y106458D01*
X-116067Y106208D01*
X-116173Y106000D01*
X-116707Y105583D01*
X-116947Y105292D01*
X-117107Y104875D01*
X-117160Y104500D01*
X-116040D01*
G01X-103600Y108600D02*
Y103400D01*
X-114400D01*
G01X-103600Y108600D02*
X-114400D01*
Y103400D01*
G01X-105733Y126000D02*
Y128500D01*
X-105067D01*
X-104853Y128375D01*
X-104720Y128208D01*
X-104667Y127875D01*
X-104720Y127542D01*
X-104880Y127333D01*
X-105067Y127208D01*
X-105733D01*
G01X-105067D02*
X-104667Y126000D01*
G01X-103307Y127042D02*
X-103120Y127333D01*
X-102960Y127500D01*
X-102747Y127583D01*
X-102560Y127500D01*
X-102427Y127333D01*
X-102320Y127083D01*
X-102293Y126792D01*
X-102320Y126542D01*
X-102427Y126292D01*
X-102587Y126083D01*
X-102773Y126000D01*
X-102987Y126083D01*
X-103173Y126333D01*
X-103280Y126708D01*
X-103307Y127125D01*
X-103253Y127667D01*
X-103173Y127958D01*
X-103040Y128250D01*
X-102853Y128458D01*
X-102667Y128500D01*
X-102480Y128417D01*
X-102347Y128208D01*
G01X-95400Y124600D02*
X-100600D01*
Y135400D01*
G01X-95400Y124600D02*
Y135400D01*
X-100600D01*
G01X-105733Y137500D02*
Y140000D01*
X-105067D01*
X-104853Y139875D01*
X-104720Y139708D01*
X-104667Y139375D01*
X-104720Y139042D01*
X-104880Y138833D01*
X-105067Y138708D01*
X-105733D01*
G01X-105067D02*
X-104667Y137500D01*
G01X-103253Y137792D02*
X-103067Y137583D01*
X-102853Y137500D01*
X-102640Y137583D01*
X-102453Y137833D01*
X-102320Y138208D01*
X-102267Y138583D01*
Y139042D01*
X-102320Y139417D01*
X-102453Y139750D01*
X-102613Y139917D01*
X-102800Y140000D01*
X-103013Y139917D01*
X-103173Y139750D01*
X-103280Y139500D01*
X-103333Y139167D01*
X-103280Y138875D01*
X-103147Y138583D01*
X-102987Y138417D01*
X-102800Y138375D01*
X-102587Y138458D01*
X-102427Y138667D01*
X-102267Y139042D01*
G01X-100600Y146900D02*
Y136100D01*
X-95400D01*
G01X-113933Y149500D02*
Y152000D01*
X-113267D01*
X-113053Y151875D01*
X-112920Y151708D01*
X-112867Y151375D01*
X-112920Y151042D01*
X-113080Y150833D01*
X-113267Y150708D01*
X-113933D01*
G01X-113267D02*
X-112867Y149500D01*
G01X-111000D02*
Y152000D01*
X-111320Y151500D01*
G01Y149500D02*
X-110680D01*
G01X-109187Y149875D02*
X-109027Y149667D01*
X-108840Y149542D01*
X-108600Y149500D01*
X-108360Y149583D01*
X-108173Y149750D01*
X-108040Y150042D01*
X-108013Y150375D01*
X-108067Y150708D01*
X-108200Y150917D01*
X-108387Y151083D01*
X-108573Y151125D01*
X-108760Y151083D01*
X-109000Y150917D01*
X-108920Y152000D01*
X-108200D01*
G01X-95600Y152600D02*
Y147400D01*
X-106400D01*
G01X-95600Y152600D02*
X-106400D01*
Y147400D01*
G01X-100600Y146900D02*
X-95400D01*
Y136100D01*
G01X-88250Y-125050D02*
G03X-95750I-3750J-6434D01*
G01Y-136950D01*
G03X-88250I3750J6296D01*
G01Y-125050D01*
G01X-65250D02*
G03X-72750I-3750J-6434D01*
G01Y-136950D01*
G03X-65250I3750J6296D01*
G01Y-125050D01*
G01X-86313Y-106208D02*
X-86473Y-106083D01*
X-86660Y-106000D01*
X-86873D01*
X-87113Y-106125D01*
X-87300Y-106333D01*
X-87433Y-106583D01*
X-87540Y-107000D01*
X-87567Y-107375D01*
X-87513Y-107750D01*
X-87433Y-108000D01*
X-87273Y-108250D01*
X-87087Y-108417D01*
X-86900Y-108500D01*
X-86713D01*
X-86527Y-108417D01*
X-86367Y-108292D01*
X-86233Y-108125D01*
G01X-84500Y-108500D02*
Y-106000D01*
X-84820Y-106500D01*
G01Y-108500D02*
X-84180D01*
G01X-82153D02*
X-82100Y-107958D01*
X-82020Y-107500D01*
X-81913Y-107083D01*
X-81780Y-106625D01*
X-81567Y-106000D01*
X-82633D01*
G01X-79450Y-104250D02*
G03Y-111750I6434J-3750D01*
G01X-67550D01*
G03Y-104250I-6296J3750D01*
G01X-79450D01*
G01X-71513Y-120208D02*
X-71673Y-120083D01*
X-71860Y-120000D01*
X-72073D01*
X-72313Y-120125D01*
X-72500Y-120333D01*
X-72633Y-120583D01*
X-72740Y-121000D01*
X-72767Y-121375D01*
X-72713Y-121750D01*
X-72633Y-122000D01*
X-72473Y-122250D01*
X-72287Y-122417D01*
X-72100Y-122500D01*
X-71913D01*
X-71727Y-122417D01*
X-71567Y-122292D01*
X-71433Y-122125D01*
G01X-69700Y-122500D02*
Y-120000D01*
X-70020Y-120500D01*
G01Y-122500D02*
X-69380D01*
G01X-67807Y-120417D02*
X-67647Y-120167D01*
X-67460Y-120042D01*
X-67247Y-120000D01*
X-66980Y-120083D01*
X-66793Y-120292D01*
X-66740Y-120542D01*
X-66767Y-120792D01*
X-66873Y-121000D01*
X-67407Y-121417D01*
X-67647Y-121708D01*
X-67807Y-122125D01*
X-67860Y-122500D01*
X-66740D01*
G01X-65487Y-122125D02*
X-65327Y-122333D01*
X-65140Y-122458D01*
X-64900Y-122500D01*
X-64660Y-122417D01*
X-64473Y-122250D01*
X-64340Y-121958D01*
X-64313Y-121625D01*
X-64367Y-121292D01*
X-64500Y-121083D01*
X-64687Y-120917D01*
X-64873Y-120875D01*
X-65060Y-120917D01*
X-65300Y-121083D01*
X-65220Y-120000D01*
X-64500D01*
G01X-80863Y-120591D02*
Y-123091D01*
X-79797D01*
G01X-77610D02*
Y-120591D01*
X-78597Y-122382D01*
X-77263D01*
G01X-94500Y50767D02*
X-97000D01*
Y51433D01*
X-96875Y51647D01*
X-96708Y51780D01*
X-96375Y51833D01*
X-96042Y51780D01*
X-95833Y51620D01*
X-95708Y51433D01*
Y50767D01*
G01Y51433D02*
X-94500Y51833D01*
G01Y53700D02*
X-97000D01*
X-96500Y53380D01*
G01X-94500D02*
Y54020D01*
G01X-95542Y55593D02*
X-95833Y55780D01*
X-96000Y55940D01*
X-96083Y56153D01*
X-96000Y56340D01*
X-95833Y56473D01*
X-95583Y56580D01*
X-95292Y56607D01*
X-95042Y56580D01*
X-94792Y56473D01*
X-94583Y56313D01*
X-94500Y56127D01*
X-94583Y55913D01*
X-94833Y55727D01*
X-95208Y55620D01*
X-95625Y55593D01*
X-96167Y55647D01*
X-96458Y55727D01*
X-96750Y55860D01*
X-96958Y56047D01*
X-97000Y56233D01*
X-96917Y56420D01*
X-96708Y56553D01*
G01X-94792Y58047D02*
X-94583Y58233D01*
X-94500Y58447D01*
X-94583Y58660D01*
X-94833Y58847D01*
X-95208Y58980D01*
X-95583Y59033D01*
X-96042D01*
X-96417Y58980D01*
X-96750Y58847D01*
X-96917Y58687D01*
X-97000Y58500D01*
X-96917Y58287D01*
X-96750Y58127D01*
X-96500Y58020D01*
X-96167Y57967D01*
X-95875Y58020D01*
X-95583Y58153D01*
X-95417Y58313D01*
X-95375Y58500D01*
X-95458Y58713D01*
X-95667Y58873D01*
X-96042Y59033D01*
G01X-87500Y50767D02*
X-90000D01*
Y51433D01*
X-89875Y51647D01*
X-89708Y51780D01*
X-89375Y51833D01*
X-89042Y51780D01*
X-88833Y51620D01*
X-88708Y51433D01*
Y50767D01*
G01Y51433D02*
X-87500Y51833D01*
G01Y53700D02*
X-90000D01*
X-89500Y53380D01*
G01X-87500D02*
Y54020D01*
G01Y56047D02*
X-88042Y56100D01*
X-88500Y56180D01*
X-88917Y56287D01*
X-89375Y56420D01*
X-90000Y56633D01*
Y55567D01*
G01Y58500D02*
X-89917Y58287D01*
X-89708Y58127D01*
X-89458Y58020D01*
X-89125Y57940D01*
X-88750Y57913D01*
X-88375Y57940D01*
X-88042Y58020D01*
X-87792Y58127D01*
X-87583Y58287D01*
X-87500Y58500D01*
X-87583Y58713D01*
X-87792Y58873D01*
X-88042Y58980D01*
X-88375Y59060D01*
X-88750Y59087D01*
X-89125Y59060D01*
X-89458Y58980D01*
X-89708Y58873D01*
X-89917Y58713D01*
X-90000Y58500D01*
G01X-80500Y50767D02*
X-83000D01*
Y51433D01*
X-82875Y51647D01*
X-82708Y51780D01*
X-82375Y51833D01*
X-82042Y51780D01*
X-81833Y51620D01*
X-81708Y51433D01*
Y50767D01*
G01Y51433D02*
X-80500Y51833D01*
G01Y53700D02*
X-83000D01*
X-82500Y53380D01*
G01X-80500D02*
Y54020D01*
G01Y56047D02*
X-81042Y56100D01*
X-81500Y56180D01*
X-81917Y56287D01*
X-82375Y56420D01*
X-83000Y56633D01*
Y55567D01*
G01X-80500Y58500D02*
X-83000D01*
X-82500Y58180D01*
G01X-80500D02*
Y58820D01*
G01X-73500Y50767D02*
X-76000D01*
Y51433D01*
X-75875Y51647D01*
X-75708Y51780D01*
X-75375Y51833D01*
X-75042Y51780D01*
X-74833Y51620D01*
X-74708Y51433D01*
Y50767D01*
G01Y51433D02*
X-73500Y51833D01*
G01Y53700D02*
X-76000D01*
X-75500Y53380D01*
G01X-73500D02*
Y54020D01*
G01Y56047D02*
X-74042Y56100D01*
X-74500Y56180D01*
X-74917Y56287D01*
X-75375Y56420D01*
X-76000Y56633D01*
Y55567D01*
G01X-75583Y57993D02*
X-75833Y58153D01*
X-75958Y58340D01*
X-76000Y58553D01*
X-75917Y58820D01*
X-75708Y59007D01*
X-75458Y59060D01*
X-75208Y59033D01*
X-75000Y58927D01*
X-74583Y58393D01*
X-74292Y58153D01*
X-73875Y57993D01*
X-73500Y57940D01*
Y59060D01*
G01X-68287Y76000D02*
Y74208D01*
X-68180Y73833D01*
X-67967Y73583D01*
X-67700Y73500D01*
X-67433Y73583D01*
X-67220Y73833D01*
X-67113Y74208D01*
Y76000D01*
G01X-65887Y74000D02*
X-65727Y73708D01*
X-65513Y73542D01*
X-65273Y73500D01*
X-65060Y73542D01*
X-64847Y73750D01*
X-64713Y74000D01*
X-64687Y74250D01*
X-64740Y74542D01*
X-64927Y74750D01*
X-65113Y74833D01*
X-65353D01*
G01X-65113D02*
X-64953Y74958D01*
X-64820Y75167D01*
X-64767Y75417D01*
X-64820Y75667D01*
X-64953Y75875D01*
X-65193Y76000D01*
X-65433Y75958D01*
X-65673Y75792D01*
G01X-82313Y74792D02*
X-82473Y74917D01*
X-82660Y75000D01*
X-82873D01*
X-83113Y74875D01*
X-83300Y74667D01*
X-83433Y74417D01*
X-83540Y74000D01*
X-83567Y73625D01*
X-83513Y73250D01*
X-83433Y73000D01*
X-83273Y72750D01*
X-83087Y72583D01*
X-82900Y72500D01*
X-82713D01*
X-82527Y72583D01*
X-82367Y72708D01*
X-82233Y72875D01*
G01X-80500Y72500D02*
Y75000D01*
X-80820Y74500D01*
G01Y72500D02*
X-80180D01*
G01X-78100Y75000D02*
X-78313Y74917D01*
X-78473Y74708D01*
X-78580Y74458D01*
X-78660Y74125D01*
X-78687Y73750D01*
X-78660Y73375D01*
X-78580Y73042D01*
X-78473Y72792D01*
X-78313Y72583D01*
X-78100Y72500D01*
X-77887Y72583D01*
X-77727Y72792D01*
X-77620Y73042D01*
X-77540Y73375D01*
X-77513Y73750D01*
X-77540Y74125D01*
X-77620Y74458D01*
X-77727Y74708D01*
X-77887Y74917D01*
X-78100Y75000D01*
G01X-94600Y70900D02*
X-86400D01*
G01X-94600Y76100D02*
X-86400D01*
G01Y70900D02*
G03Y76100I-1711J2600D01*
G01X-94600D02*
G03Y70900I1950J-2600D01*
G01X-84467Y130650D02*
X-84509Y130837D01*
X-84634Y131050D01*
X-84842Y131183D01*
X-85134Y131237D01*
X-85425Y131183D01*
X-85675Y131023D01*
X-85800Y130783D01*
Y130517D01*
X-85884Y130357D01*
X-86092Y130223D01*
X-86384Y130170D01*
X-86675Y130250D01*
X-86884Y130437D01*
X-86967Y130650D01*
X-86884Y130863D01*
X-86675Y131050D01*
X-86384Y131130D01*
X-86092Y131077D01*
X-85884Y130943D01*
X-85800Y130783D01*
Y130517D01*
X-85675Y130277D01*
X-85425Y130117D01*
X-85134Y130063D01*
X-84842Y130117D01*
X-84634Y130250D01*
X-84509Y130463D01*
X-84467Y130650D01*
G01X-67000Y132500D02*
Y131500D01*
X-82000D01*
G01X-77500D02*
G02X-71500I3000J464D01*
G01X-82000D02*
Y132500D01*
G01X-85313Y122292D02*
X-85473Y122417D01*
X-85660Y122500D01*
X-85873D01*
X-86113Y122375D01*
X-86300Y122167D01*
X-86433Y121917D01*
X-86540Y121500D01*
X-86567Y121125D01*
X-86513Y120750D01*
X-86433Y120500D01*
X-86273Y120250D01*
X-86087Y120083D01*
X-85900Y120000D01*
X-85713D01*
X-85527Y120083D01*
X-85367Y120208D01*
X-85233Y120375D01*
G01X-83500Y120000D02*
Y122500D01*
X-83820Y122000D01*
G01Y120000D02*
X-83180D01*
G01X-81100D02*
Y122500D01*
X-81420Y122000D01*
G01Y120000D02*
X-80780D01*
G01X-78900Y128600D02*
X-87100D01*
G01X-78900Y123400D02*
X-87100D01*
G01Y128600D02*
G03Y123400I1711J-2600D01*
G01X-78900D02*
G03Y128600I-1950J2600D01*
G01X-69933Y120000D02*
Y122500D01*
X-69267D01*
X-69053Y122375D01*
X-68920Y122208D01*
X-68867Y121875D01*
X-68920Y121542D01*
X-69080Y121333D01*
X-69267Y121208D01*
X-69933D01*
G01X-69267D02*
X-68867Y120000D01*
G01X-67000D02*
Y122500D01*
X-67320Y122000D01*
G01Y120000D02*
X-66680D01*
G01X-65187Y120500D02*
X-65027Y120208D01*
X-64813Y120042D01*
X-64573Y120000D01*
X-64360Y120042D01*
X-64147Y120250D01*
X-64013Y120500D01*
X-63987Y120750D01*
X-64040Y121042D01*
X-64227Y121250D01*
X-64413Y121333D01*
X-64653D01*
G01X-64413D02*
X-64253Y121458D01*
X-64120Y121667D01*
X-64067Y121917D01*
X-64120Y122167D01*
X-64253Y122375D01*
X-64493Y122500D01*
X-64733Y122458D01*
X-64973Y122292D01*
G01X-70400Y123400D02*
Y128600D01*
X-59600D01*
G01X-70400Y123400D02*
X-59600D01*
Y128600D01*
G01X-84342Y151563D02*
X-84134Y151723D01*
X-84009Y151910D01*
X-83967Y152150D01*
X-84050Y152390D01*
X-84217Y152577D01*
X-84509Y152710D01*
X-84842Y152737D01*
X-85175Y152683D01*
X-85384Y152550D01*
X-85550Y152363D01*
X-85592Y152177D01*
X-85550Y151990D01*
X-85384Y151750D01*
X-86467Y151830D01*
Y152550D01*
G01X-82000Y150500D02*
Y151500D01*
X-67000D01*
Y150500D01*
G01X-45733Y-104000D02*
Y-106500D01*
X-44667D01*
G01X-42800D02*
Y-104000D01*
X-43120Y-104500D01*
G01Y-106500D02*
X-42480D01*
G01X-59507Y-84833D02*
X-60147D01*
G01X-59800Y-85375D02*
Y-84292D01*
G01X-59453Y-54833D02*
X-60147D01*
G01X-59453D02*
X-60147D01*
G01X-35000Y51267D02*
X-37500D01*
Y51933D01*
X-37375Y52147D01*
X-37208Y52280D01*
X-36875Y52333D01*
X-36542Y52280D01*
X-36333Y52120D01*
X-36208Y51933D01*
Y51267D01*
G01Y51933D02*
X-35000Y52333D01*
G01Y54200D02*
X-37500D01*
X-37000Y53880D01*
G01X-35000D02*
Y54520D01*
G01Y56547D02*
X-35542Y56600D01*
X-36000Y56680D01*
X-36417Y56787D01*
X-36875Y56920D01*
X-37500Y57133D01*
Y56067D01*
G01X-35000Y59320D02*
X-37500D01*
X-35708Y58333D01*
Y59667D01*
G01X-45313Y75792D02*
X-45473Y75917D01*
X-45660Y76000D01*
X-45873D01*
X-46113Y75875D01*
X-46300Y75667D01*
X-46433Y75417D01*
X-46540Y75000D01*
X-46567Y74625D01*
X-46513Y74250D01*
X-46433Y74000D01*
X-46273Y73750D01*
X-46087Y73583D01*
X-45900Y73500D01*
X-45713D01*
X-45527Y73583D01*
X-45367Y73708D01*
X-45233Y73875D01*
G01X-43500Y73500D02*
Y76000D01*
X-43820Y75500D01*
G01Y73500D02*
X-43180D01*
G01X-41607Y75583D02*
X-41447Y75833D01*
X-41260Y75958D01*
X-41047Y76000D01*
X-40780Y75917D01*
X-40593Y75708D01*
X-40540Y75458D01*
X-40567Y75208D01*
X-40673Y75000D01*
X-41207Y74583D01*
X-41447Y74292D01*
X-41607Y73875D01*
X-41660Y73500D01*
X-40540D01*
G01X-46100Y77400D02*
X-37900D01*
G01X-46100Y82600D02*
X-37900D01*
G01Y77400D02*
G03Y82600I-1711J2600D01*
G01X-46100D02*
G03Y77400I1950J-2600D01*
G01X-44813Y111792D02*
X-44973Y111917D01*
X-45160Y112000D01*
X-45373D01*
X-45613Y111875D01*
X-45800Y111667D01*
X-45933Y111417D01*
X-46040Y111000D01*
X-46067Y110625D01*
X-46013Y110250D01*
X-45933Y110000D01*
X-45773Y109750D01*
X-45587Y109583D01*
X-45400Y109500D01*
X-45213D01*
X-45027Y109583D01*
X-44867Y109708D01*
X-44733Y109875D01*
G01X-43000Y109500D02*
Y112000D01*
X-43320Y111500D01*
G01Y109500D02*
X-42680D01*
G01X-41187Y109875D02*
X-41027Y109667D01*
X-40840Y109542D01*
X-40600Y109500D01*
X-40360Y109583D01*
X-40173Y109750D01*
X-40040Y110042D01*
X-40013Y110375D01*
X-40067Y110708D01*
X-40200Y110917D01*
X-40387Y111083D01*
X-40573Y111125D01*
X-40760Y111083D01*
X-41000Y110917D01*
X-40920Y112000D01*
X-40200D01*
G01X-37900Y108600D02*
X-46100D01*
G01X-37900Y103400D02*
X-46100D01*
G01Y108600D02*
G03Y103400I1711J-2600D01*
G01X-37900D02*
G03Y108600I-1950J2600D01*
G01X-44313Y101792D02*
X-44473Y101917D01*
X-44660Y102000D01*
X-44873D01*
X-45113Y101875D01*
X-45300Y101667D01*
X-45433Y101417D01*
X-45540Y101000D01*
X-45567Y100625D01*
X-45513Y100250D01*
X-45433Y100000D01*
X-45273Y99750D01*
X-45087Y99583D01*
X-44900Y99500D01*
X-44713D01*
X-44527Y99583D01*
X-44367Y99708D01*
X-44233Y99875D01*
G01X-42500Y99500D02*
Y102000D01*
X-42820Y101500D01*
G01Y99500D02*
X-42180D01*
G01X-39780D02*
Y102000D01*
X-40767Y100208D01*
X-39433D01*
G01X-46100Y93400D02*
X-37900D01*
G01X-46100Y98600D02*
X-37900D01*
G01Y93400D02*
G03Y98600I-1711J2600D01*
G01X-46100D02*
G03Y93400I1950J-2600D01*
G01X-44313Y91792D02*
X-44473Y91917D01*
X-44660Y92000D01*
X-44873D01*
X-45113Y91875D01*
X-45300Y91667D01*
X-45433Y91417D01*
X-45540Y91000D01*
X-45567Y90625D01*
X-45513Y90250D01*
X-45433Y90000D01*
X-45273Y89750D01*
X-45087Y89583D01*
X-44900Y89500D01*
X-44713D01*
X-44527Y89583D01*
X-44367Y89708D01*
X-44233Y89875D01*
G01X-42500Y89500D02*
Y92000D01*
X-42820Y91500D01*
G01Y89500D02*
X-42180D01*
G01X-40687Y90000D02*
X-40527Y89708D01*
X-40313Y89542D01*
X-40073Y89500D01*
X-39860Y89542D01*
X-39647Y89750D01*
X-39513Y90000D01*
X-39487Y90250D01*
X-39540Y90542D01*
X-39727Y90750D01*
X-39913Y90833D01*
X-40153D01*
G01X-39913D02*
X-39753Y90958D01*
X-39620Y91167D01*
X-39567Y91417D01*
X-39620Y91667D01*
X-39753Y91875D01*
X-39993Y92000D01*
X-40233Y91958D01*
X-40473Y91792D01*
G01X-37900Y88600D02*
X-46100D01*
G01X-37900Y83400D02*
X-46100D01*
G01Y88600D02*
G03Y83400I1711J-2600D01*
G01X-37900D02*
G03Y88600I-1950J2600D01*
G01X-56287Y141500D02*
Y139708D01*
X-56180Y139333D01*
X-55967Y139083D01*
X-55700Y139000D01*
X-55433Y139083D01*
X-55220Y139333D01*
X-55113Y139708D01*
Y141500D01*
G01X-53807Y141083D02*
X-53647Y141333D01*
X-53460Y141458D01*
X-53247Y141500D01*
X-52980Y141417D01*
X-52793Y141208D01*
X-52740Y140958D01*
X-52767Y140708D01*
X-52873Y140500D01*
X-53407Y140083D01*
X-53647Y139792D01*
X-53807Y139375D01*
X-53860Y139000D01*
X-52740D01*
G01X-56882Y134000D02*
G03I-1118J0D01*
G01X-42733Y132000D02*
Y134500D01*
X-42067D01*
X-41853Y134375D01*
X-41720Y134208D01*
X-41667Y133875D01*
X-41720Y133542D01*
X-41880Y133333D01*
X-42067Y133208D01*
X-42733D01*
G01X-42067D02*
X-41667Y132000D01*
G01X-39800D02*
X-39613Y132042D01*
X-39400Y132167D01*
X-39267Y132375D01*
X-39213Y132667D01*
X-39267Y132958D01*
X-39427Y133208D01*
X-39667Y133333D01*
X-39933D01*
X-40093Y133417D01*
X-40227Y133625D01*
X-40280Y133917D01*
X-40200Y134208D01*
X-40013Y134417D01*
X-39800Y134500D01*
X-39587Y134417D01*
X-39400Y134208D01*
X-39320Y133917D01*
X-39373Y133625D01*
X-39507Y133417D01*
X-39667Y133333D01*
X-39933D01*
X-40173Y133208D01*
X-40333Y132958D01*
X-40387Y132667D01*
X-40333Y132375D01*
X-40200Y132167D01*
X-39987Y132042D01*
X-39800Y132000D01*
G01X-44600Y135600D02*
Y130400D01*
X-55400D01*
G01X-44600Y135600D02*
X-55400D01*
Y130400D01*
G01X-61967Y151970D02*
X-64467D01*
X-62675Y150983D01*
Y152317D01*
G01X-43433Y147500D02*
Y150000D01*
X-42767D01*
X-42553Y149875D01*
X-42420Y149708D01*
X-42367Y149375D01*
X-42420Y149042D01*
X-42580Y148833D01*
X-42767Y148708D01*
X-43433D01*
G01X-42767D02*
X-42367Y147500D01*
G01X-40500D02*
Y150000D01*
X-40820Y149500D01*
G01Y147500D02*
X-40180D01*
G01X-38100D02*
Y150000D01*
X-38420Y149500D01*
G01Y147500D02*
X-37780D01*
G01X-44600Y151600D02*
Y146400D01*
X-55400D01*
G01X-44600Y151600D02*
X-55400D01*
Y146400D01*
G01X-12287Y-134500D02*
Y-132000D01*
X-11753D01*
X-11540Y-132125D01*
X-11380Y-132292D01*
X-11247Y-132542D01*
X-11140Y-132833D01*
X-11113Y-133250D01*
X-11140Y-133667D01*
X-11247Y-133958D01*
X-11380Y-134208D01*
X-11540Y-134375D01*
X-11753Y-134500D01*
X-12287D01*
G01X-9887Y-134125D02*
X-9727Y-134333D01*
X-9540Y-134458D01*
X-9300Y-134500D01*
X-9060Y-134417D01*
X-8873Y-134250D01*
X-8740Y-133958D01*
X-8713Y-133625D01*
X-8767Y-133292D01*
X-8900Y-133083D01*
X-9087Y-132917D01*
X-9273Y-132875D01*
X-9460Y-132917D01*
X-9700Y-133083D01*
X-9620Y-132000D01*
X-8900D01*
G01X-23500Y-59713D02*
X-25292D01*
X-25667Y-59820D01*
X-25917Y-60033D01*
X-26000Y-60300D01*
X-25917Y-60567D01*
X-25667Y-60780D01*
X-25292Y-60887D01*
X-23500D01*
G01X-26000Y-63020D02*
X-23500D01*
X-25292Y-62033D01*
Y-63367D01*
G01X-28500Y51267D02*
X-31000D01*
Y51933D01*
X-30875Y52147D01*
X-30708Y52280D01*
X-30375Y52333D01*
X-30042Y52280D01*
X-29833Y52120D01*
X-29708Y51933D01*
Y51267D01*
G01Y51933D02*
X-28500Y52333D01*
G01Y54200D02*
X-31000D01*
X-30500Y53880D01*
G01X-28500D02*
Y54520D01*
G01Y56547D02*
X-29042Y56600D01*
X-29500Y56680D01*
X-29917Y56787D01*
X-30375Y56920D01*
X-31000Y57133D01*
Y56067D01*
G01X-29000Y58413D02*
X-28708Y58573D01*
X-28542Y58787D01*
X-28500Y59027D01*
X-28542Y59240D01*
X-28750Y59453D01*
X-29000Y59587D01*
X-29250Y59613D01*
X-29542Y59560D01*
X-29750Y59373D01*
X-29833Y59187D01*
Y58947D01*
G01Y59187D02*
X-29958Y59347D01*
X-30167Y59480D01*
X-30417Y59533D01*
X-30667Y59480D01*
X-30875Y59347D01*
X-31000Y59107D01*
X-30958Y58867D01*
X-30792Y58627D01*
G01X-17100Y87600D02*
Y79400D01*
G01X-11900Y87600D02*
Y79400D01*
G01X-17100D02*
G03X-11900I2600J1711D01*
G01X-33113Y76792D02*
X-33273Y76917D01*
X-33460Y77000D01*
X-33673D01*
X-33913Y76875D01*
X-34100Y76667D01*
X-34233Y76417D01*
X-34340Y76000D01*
X-34367Y75625D01*
X-34313Y75250D01*
X-34233Y75000D01*
X-34073Y74750D01*
X-33887Y74583D01*
X-33700Y74500D01*
X-33513D01*
X-33327Y74583D01*
X-33167Y74708D01*
X-33033Y74875D01*
G01X-31807Y76583D02*
X-31647Y76833D01*
X-31460Y76958D01*
X-31247Y77000D01*
X-30980Y76917D01*
X-30793Y76708D01*
X-30740Y76458D01*
X-30767Y76208D01*
X-30873Y76000D01*
X-31407Y75583D01*
X-31647Y75292D01*
X-31807Y74875D01*
X-31860Y74500D01*
X-30740D01*
G01X-29400Y79400D02*
Y87600D01*
G01X-34600Y79400D02*
Y87600D01*
G01Y79400D02*
G03X-29400I2600J1950D01*
G01X-29100Y88900D02*
X-23900D01*
Y78100D01*
G01X-29100Y88900D02*
Y78100D01*
X-23900D01*
G01X-18400D02*
X-23600D01*
Y88900D01*
G01X-18400Y78100D02*
Y88900D01*
X-23600D01*
G01X-27652Y107014D02*
X-27402Y106854D01*
X-27278Y106667D01*
X-27236Y106454D01*
X-27319Y106187D01*
X-27528Y106000D01*
X-27777Y105947D01*
X-28028Y105974D01*
X-28236Y106080D01*
X-28652Y106614D01*
X-28944Y106854D01*
X-29361Y107014D01*
X-29736Y107067D01*
Y105947D01*
G01X-11520Y106700D02*
X-11812Y106540D01*
X-11978Y106326D01*
X-12020Y106086D01*
X-11978Y105873D01*
X-11770Y105660D01*
X-11520Y105526D01*
X-11270Y105500D01*
X-10978Y105553D01*
X-10770Y105740D01*
X-10687Y105926D01*
Y106166D01*
G01Y105926D02*
X-10562Y105766D01*
X-10354Y105633D01*
X-10104Y105580D01*
X-9853Y105633D01*
X-9645Y105766D01*
X-9520Y106006D01*
X-9562Y106246D01*
X-9728Y106486D01*
G01X-10260Y113500D02*
X-9140Y116000D01*
G01X-10260D02*
X-9140Y113500D01*
G01X-7300D02*
Y116000D01*
X-7620Y115500D01*
G01Y113500D02*
X-6980D01*
G01X-15113Y92292D02*
X-15273Y92417D01*
X-15460Y92500D01*
X-15673D01*
X-15913Y92375D01*
X-16100Y92167D01*
X-16233Y91917D01*
X-16340Y91500D01*
X-16367Y91125D01*
X-16313Y90750D01*
X-16233Y90500D01*
X-16073Y90250D01*
X-15887Y90083D01*
X-15700Y90000D01*
X-15513D01*
X-15327Y90083D01*
X-15167Y90208D01*
X-15033Y90375D01*
G01X-13753Y90292D02*
X-13567Y90083D01*
X-13353Y90000D01*
X-13140Y90083D01*
X-12953Y90333D01*
X-12820Y90708D01*
X-12767Y91083D01*
Y91542D01*
X-12820Y91917D01*
X-12953Y92250D01*
X-13113Y92417D01*
X-13300Y92500D01*
X-13513Y92417D01*
X-13673Y92250D01*
X-13780Y92000D01*
X-13833Y91667D01*
X-13780Y91375D01*
X-13647Y91083D01*
X-13487Y90917D01*
X-13300Y90875D01*
X-13087Y90958D01*
X-12927Y91167D01*
X-12767Y91542D01*
G01X-11900Y87600D02*
G03X-17100I-2600J-1950D01*
G01X-29400D02*
G03X-34600I-2600J-1711D01*
G01X-9613Y98792D02*
X-9773Y98917D01*
X-9960Y99000D01*
X-10173D01*
X-10413Y98875D01*
X-10600Y98667D01*
X-10733Y98417D01*
X-10840Y98000D01*
X-10867Y97625D01*
X-10813Y97250D01*
X-10733Y97000D01*
X-10573Y96750D01*
X-10387Y96583D01*
X-10200Y96500D01*
X-10013D01*
X-9827Y96583D01*
X-9667Y96708D01*
X-9533Y96875D01*
G01X-8387Y97000D02*
X-8227Y96708D01*
X-8013Y96542D01*
X-7773Y96500D01*
X-7560Y96542D01*
X-7347Y96750D01*
X-7213Y97000D01*
X-7187Y97250D01*
X-7240Y97542D01*
X-7427Y97750D01*
X-7613Y97833D01*
X-7853D01*
G01X-7613D02*
X-7453Y97958D01*
X-7320Y98167D01*
X-7267Y98417D01*
X-7320Y98667D01*
X-7453Y98875D01*
X-7693Y99000D01*
X-7933Y98958D01*
X-8173Y98792D01*
G01X-21600Y94900D02*
X-13400D01*
G01X-21600Y100100D02*
X-13400D01*
G01Y94900D02*
G03Y100100I-1711J2600D01*
G01X-21600D02*
G03Y94900I1950J-2600D01*
G01X-28233Y90000D02*
Y92500D01*
X-27567D01*
X-27353Y92375D01*
X-27220Y92208D01*
X-27167Y91875D01*
X-27220Y91542D01*
X-27380Y91333D01*
X-27567Y91208D01*
X-28233D01*
G01X-27567D02*
X-27167Y90000D01*
G01X-25300D02*
Y92500D01*
X-25620Y92000D01*
G01Y90000D02*
X-24980D01*
G01X-23233D02*
Y92500D01*
X-22567D01*
X-22353Y92375D01*
X-22220Y92208D01*
X-22167Y91875D01*
X-22220Y91542D01*
X-22380Y91333D01*
X-22567Y91208D01*
X-23233D01*
G01X-22567D02*
X-22167Y90000D01*
G01X-20887Y90375D02*
X-20727Y90167D01*
X-20540Y90042D01*
X-20300Y90000D01*
X-20060Y90083D01*
X-19873Y90250D01*
X-19740Y90542D01*
X-19713Y90875D01*
X-19767Y91208D01*
X-19900Y91417D01*
X-20087Y91583D01*
X-20273Y91625D01*
X-20460Y91583D01*
X-20700Y91417D01*
X-20620Y92500D01*
X-19900D01*
G01X-32700Y101500D02*
Y99000D01*
G01X-33313Y101500D02*
X-32087D01*
G01X-30833Y99000D02*
Y101500D01*
X-30193D01*
X-29980Y101375D01*
X-29820Y101083D01*
X-29767Y100750D01*
X-29820Y100417D01*
X-29953Y100167D01*
X-30193Y100042D01*
X-30833D01*
G01X-28407Y101083D02*
X-28247Y101333D01*
X-28060Y101458D01*
X-27847Y101500D01*
X-27580Y101417D01*
X-27393Y101208D01*
X-27340Y100958D01*
X-27367Y100708D01*
X-27473Y100500D01*
X-28007Y100083D01*
X-28247Y99792D01*
X-28407Y99375D01*
X-28460Y99000D01*
X-27340D01*
G01X-12020Y121541D02*
X-9520D01*
X-11312Y122528D01*
Y121194D01*
G01X-8113Y137292D02*
X-8273Y137417D01*
X-8460Y137500D01*
X-8673D01*
X-8913Y137375D01*
X-9100Y137167D01*
X-9233Y136917D01*
X-9340Y136500D01*
X-9367Y136125D01*
X-9313Y135750D01*
X-9233Y135500D01*
X-9073Y135250D01*
X-8887Y135083D01*
X-8700Y135000D01*
X-8513D01*
X-8327Y135083D01*
X-8167Y135208D01*
X-8033Y135375D01*
G01X-6807Y136042D02*
X-6620Y136333D01*
X-6460Y136500D01*
X-6247Y136583D01*
X-6060Y136500D01*
X-5927Y136333D01*
X-5820Y136083D01*
X-5793Y135792D01*
X-5820Y135542D01*
X-5927Y135292D01*
X-6087Y135083D01*
X-6273Y135000D01*
X-6487Y135083D01*
X-6673Y135333D01*
X-6780Y135708D01*
X-6807Y136125D01*
X-6753Y136667D01*
X-6673Y136958D01*
X-6540Y137250D01*
X-6353Y137458D01*
X-6167Y137500D01*
X-5980Y137417D01*
X-5847Y137208D01*
G01X-8600Y128400D02*
X-400D01*
G01X-8600Y133600D02*
X-400D01*
G01X-8600D02*
G03Y128400I1950J-2600D01*
G01X-23613Y136792D02*
X-23773Y136917D01*
X-23960Y137000D01*
X-24173D01*
X-24413Y136875D01*
X-24600Y136667D01*
X-24733Y136417D01*
X-24840Y136000D01*
X-24867Y135625D01*
X-24813Y135250D01*
X-24733Y135000D01*
X-24573Y134750D01*
X-24387Y134583D01*
X-24200Y134500D01*
X-24013D01*
X-23827Y134583D01*
X-23667Y134708D01*
X-23533Y134875D01*
G01X-21800Y134500D02*
Y137000D01*
X-22120Y136500D01*
G01Y134500D02*
X-21480D01*
G01X-17400Y133100D02*
X-25600D01*
G01X-17400Y127900D02*
X-25600D01*
G01Y133100D02*
G03Y127900I1711J-2600D01*
G01X-17400D02*
G03Y133100I-1950J2600D01*
G01X6187Y-140708D02*
X6027Y-140583D01*
X5840Y-140500D01*
X5627D01*
X5387Y-140625D01*
X5200Y-140833D01*
X5067Y-141083D01*
X4960Y-141500D01*
X4933Y-141875D01*
X4987Y-142250D01*
X5067Y-142500D01*
X5227Y-142750D01*
X5413Y-142917D01*
X5600Y-143000D01*
X5787D01*
X5973Y-142917D01*
X6133Y-142792D01*
X6267Y-142625D01*
G01X8000Y-143000D02*
Y-140500D01*
X7680Y-141000D01*
G01Y-143000D02*
X8320D01*
G01X10400D02*
X10587Y-142958D01*
X10800Y-142833D01*
X10933Y-142625D01*
X10987Y-142333D01*
X10933Y-142042D01*
X10773Y-141792D01*
X10533Y-141667D01*
X10267D01*
X10107Y-141583D01*
X9973Y-141375D01*
X9920Y-141083D01*
X10000Y-140792D01*
X10187Y-140583D01*
X10400Y-140500D01*
X10613Y-140583D01*
X10800Y-140792D01*
X10880Y-141083D01*
X10827Y-141375D01*
X10693Y-141583D01*
X10533Y-141667D01*
X10267D01*
X10027Y-141792D01*
X9867Y-142042D01*
X9813Y-142333D01*
X9867Y-142625D01*
X10000Y-142833D01*
X10213Y-142958D01*
X10400Y-143000D01*
G01X4900Y-129400D02*
Y-137600D01*
G01X10100Y-129400D02*
Y-137600D01*
G01X4900D02*
G03X10100I2600J1711D01*
G01Y-129400D02*
G03X4900I-2600J-1950D01*
G01X15620Y-109200D02*
X13500D01*
Y-138800D01*
X15604D01*
G01X-2433Y-143500D02*
Y-141000D01*
X-1767D01*
X-1553Y-141125D01*
X-1420Y-141292D01*
X-1367Y-141625D01*
X-1420Y-141958D01*
X-1580Y-142167D01*
X-1767Y-142292D01*
X-2433D01*
G01X-1767D02*
X-1367Y-143500D01*
G01X500D02*
Y-141000D01*
X180Y-141500D01*
G01Y-143500D02*
X820D01*
G01X2900D02*
X3087Y-143458D01*
X3300Y-143333D01*
X3433Y-143125D01*
X3487Y-142833D01*
X3433Y-142542D01*
X3273Y-142292D01*
X3033Y-142167D01*
X2767D01*
X2607Y-142083D01*
X2473Y-141875D01*
X2420Y-141583D01*
X2500Y-141292D01*
X2687Y-141083D01*
X2900Y-141000D01*
X3113Y-141083D01*
X3300Y-141292D01*
X3380Y-141583D01*
X3327Y-141875D01*
X3193Y-142083D01*
X3033Y-142167D01*
X2767D01*
X2527Y-142292D01*
X2367Y-142542D01*
X2313Y-142833D01*
X2367Y-143125D01*
X2500Y-143333D01*
X2713Y-143458D01*
X2900Y-143500D01*
G01X4100Y-138900D02*
X-1100D01*
Y-128100D01*
G01X4100Y-138900D02*
Y-128100D01*
X-1100D01*
G01X19687Y-103208D02*
X19527Y-103083D01*
X19340Y-103000D01*
X19127D01*
X18887Y-103125D01*
X18700Y-103333D01*
X18567Y-103583D01*
X18460Y-104000D01*
X18433Y-104375D01*
X18487Y-104750D01*
X18567Y-105000D01*
X18727Y-105250D01*
X18913Y-105417D01*
X19100Y-105500D01*
X19287D01*
X19473Y-105417D01*
X19633Y-105292D01*
X19767Y-105125D01*
G01X20993Y-103417D02*
X21153Y-103167D01*
X21340Y-103042D01*
X21553Y-103000D01*
X21820Y-103083D01*
X22007Y-103292D01*
X22060Y-103542D01*
X22033Y-103792D01*
X21927Y-104000D01*
X21393Y-104417D01*
X21153Y-104708D01*
X20993Y-105125D01*
X20940Y-105500D01*
X22060D01*
G01X23393Y-103417D02*
X23553Y-103167D01*
X23740Y-103042D01*
X23953Y-103000D01*
X24220Y-103083D01*
X24407Y-103292D01*
X24460Y-103542D01*
X24433Y-103792D01*
X24327Y-104000D01*
X23793Y-104417D01*
X23553Y-104708D01*
X23393Y-105125D01*
X23340Y-105500D01*
X24460D01*
G01X3567Y-114500D02*
Y-112000D01*
X4233D01*
X4447Y-112125D01*
X4580Y-112292D01*
X4633Y-112625D01*
X4580Y-112958D01*
X4420Y-113167D01*
X4233Y-113292D01*
X3567D01*
G01X4233D02*
X4633Y-114500D01*
G01X5993Y-112417D02*
X6153Y-112167D01*
X6340Y-112042D01*
X6553Y-112000D01*
X6820Y-112083D01*
X7007Y-112292D01*
X7060Y-112542D01*
X7033Y-112792D01*
X6927Y-113000D01*
X6393Y-113417D01*
X6153Y-113708D01*
X5993Y-114125D01*
X5940Y-114500D01*
X7060D01*
G01X8900Y-112000D02*
X8687Y-112083D01*
X8527Y-112292D01*
X8420Y-112542D01*
X8340Y-112875D01*
X8313Y-113250D01*
X8340Y-113625D01*
X8420Y-113958D01*
X8527Y-114208D01*
X8687Y-114417D01*
X8900Y-114500D01*
X9113Y-114417D01*
X9273Y-114208D01*
X9380Y-113958D01*
X9460Y-113625D01*
X9487Y-113250D01*
X9460Y-112875D01*
X9380Y-112542D01*
X9273Y-112292D01*
X9113Y-112083D01*
X8900Y-112000D01*
G01X10100Y-126900D02*
X4900D01*
Y-116100D01*
G01X10100Y-126900D02*
Y-116100D01*
X4900D01*
G01X11767Y-92500D02*
Y-90000D01*
X12433D01*
X12647Y-90125D01*
X12780Y-90292D01*
X12833Y-90625D01*
X12780Y-90958D01*
X12620Y-91167D01*
X12433Y-91292D01*
X11767D01*
G01X12433D02*
X12833Y-92500D01*
G01X14193Y-90417D02*
X14353Y-90167D01*
X14540Y-90042D01*
X14753Y-90000D01*
X15020Y-90083D01*
X15207Y-90292D01*
X15260Y-90542D01*
X15233Y-90792D01*
X15127Y-91000D01*
X14593Y-91417D01*
X14353Y-91708D01*
X14193Y-92125D01*
X14140Y-92500D01*
X15260D01*
G01X17100D02*
Y-90000D01*
X16780Y-90500D01*
G01Y-92500D02*
X17420D01*
G01X11767Y74500D02*
X11900Y74250D01*
X12060Y74083D01*
X12247Y74000D01*
X12460Y74083D01*
X12620Y74250D01*
X12780Y74500D01*
X12833Y74833D01*
Y76500D01*
G01X15020Y74000D02*
Y76500D01*
X14033Y74708D01*
X15367D01*
G01X15400Y143600D02*
Y135400D01*
G01X20600Y143600D02*
Y135400D01*
G01X15400D02*
G03X20600I2600J1711D01*
G01X9400Y143600D02*
Y135400D01*
G01X14600Y143600D02*
Y135400D01*
G01X9400D02*
G03X14600I2600J1711D01*
G01X-400Y128400D02*
G03Y133600I-1711J2600D01*
G01X20900Y144900D02*
Y134100D01*
X26100D01*
G01X16887Y148292D02*
X16727Y148417D01*
X16540Y148500D01*
X16327D01*
X16087Y148375D01*
X15900Y148167D01*
X15767Y147917D01*
X15660Y147500D01*
X15633Y147125D01*
X15687Y146750D01*
X15767Y146500D01*
X15927Y146250D01*
X16113Y146083D01*
X16300Y146000D01*
X16487D01*
X16673Y146083D01*
X16833Y146208D01*
X16967Y146375D01*
G01X18647Y146000D02*
X18700Y146542D01*
X18780Y147000D01*
X18887Y147417D01*
X19020Y147875D01*
X19233Y148500D01*
X18167D01*
G01X20600Y143600D02*
G03X15400I-2600J-1950D01*
G01X10387Y148292D02*
X10227Y148417D01*
X10040Y148500D01*
X9827D01*
X9587Y148375D01*
X9400Y148167D01*
X9267Y147917D01*
X9160Y147500D01*
X9133Y147125D01*
X9187Y146750D01*
X9267Y146500D01*
X9427Y146250D01*
X9613Y146083D01*
X9800Y146000D01*
X9987D01*
X10173Y146083D01*
X10333Y146208D01*
X10467Y146375D01*
G01X11613D02*
X11773Y146167D01*
X11960Y146042D01*
X12200Y146000D01*
X12440Y146083D01*
X12627Y146250D01*
X12760Y146542D01*
X12787Y146875D01*
X12733Y147208D01*
X12600Y147417D01*
X12413Y147583D01*
X12227Y147625D01*
X12040Y147583D01*
X11800Y147417D01*
X11880Y148500D01*
X12600D01*
G01X14600Y143600D02*
G03X9400I-2600J-1950D01*
G01X21767Y146000D02*
Y148500D01*
X22433D01*
X22647Y148375D01*
X22780Y148208D01*
X22833Y147875D01*
X22780Y147542D01*
X22620Y147333D01*
X22433Y147208D01*
X21767D01*
G01X22433D02*
X22833Y146000D01*
G01X25020D02*
Y148500D01*
X24033Y146708D01*
X25367D01*
G01X20900Y144900D02*
X26100D01*
Y134100D01*
G01X32100Y-140200D02*
X34700D01*
G01X33300Y-141500D02*
Y-138900D01*
G01X30500Y-138800D02*
Y-109200D01*
X28383D01*
G01X28319Y-138800D02*
X30500D01*
G01X51319D02*
X53500D01*
G01X38620Y-109200D02*
X36500D01*
Y-138800D01*
X38604D01*
G01X40187Y-103208D02*
X40027Y-103083D01*
X39840Y-103000D01*
X39627D01*
X39387Y-103125D01*
X39200Y-103333D01*
X39067Y-103583D01*
X38960Y-104000D01*
X38933Y-104375D01*
X38987Y-104750D01*
X39067Y-105000D01*
X39227Y-105250D01*
X39413Y-105417D01*
X39600Y-105500D01*
X39787D01*
X39973Y-105417D01*
X40133Y-105292D01*
X40267Y-105125D01*
G01X41493Y-103417D02*
X41653Y-103167D01*
X41840Y-103042D01*
X42053Y-103000D01*
X42320Y-103083D01*
X42507Y-103292D01*
X42560Y-103542D01*
X42533Y-103792D01*
X42427Y-104000D01*
X41893Y-104417D01*
X41653Y-104708D01*
X41493Y-105125D01*
X41440Y-105500D01*
X42560D01*
G01X43813Y-105000D02*
X43973Y-105292D01*
X44187Y-105458D01*
X44427Y-105500D01*
X44640Y-105458D01*
X44853Y-105250D01*
X44987Y-105000D01*
X45013Y-104750D01*
X44960Y-104458D01*
X44773Y-104250D01*
X44587Y-104167D01*
X44347D01*
G01X44587D02*
X44747Y-104042D01*
X44880Y-103833D01*
X44933Y-103583D01*
X44880Y-103333D01*
X44747Y-103125D01*
X44507Y-103000D01*
X44267Y-103042D01*
X44027Y-103208D01*
G01X53500Y-138800D02*
Y-109200D01*
X51383D01*
G01X33387Y74792D02*
X33227Y74917D01*
X33040Y75000D01*
X32827D01*
X32587Y74875D01*
X32400Y74667D01*
X32267Y74417D01*
X32160Y74000D01*
X32133Y73625D01*
X32187Y73250D01*
X32267Y73000D01*
X32427Y72750D01*
X32613Y72583D01*
X32800Y72500D01*
X32987D01*
X33173Y72583D01*
X33333Y72708D01*
X33467Y72875D01*
G01X35200Y72500D02*
X35387Y72542D01*
X35600Y72667D01*
X35733Y72875D01*
X35787Y73167D01*
X35733Y73458D01*
X35573Y73708D01*
X35333Y73833D01*
X35067D01*
X34907Y73917D01*
X34773Y74125D01*
X34720Y74417D01*
X34800Y74708D01*
X34987Y74917D01*
X35200Y75000D01*
X35413Y74917D01*
X35600Y74708D01*
X35680Y74417D01*
X35627Y74125D01*
X35493Y73917D01*
X35333Y73833D01*
X35067D01*
X34827Y73708D01*
X34667Y73458D01*
X34613Y73167D01*
X34667Y72875D01*
X34800Y72667D01*
X35013Y72542D01*
X35200Y72500D01*
G01X37100Y77400D02*
Y85600D01*
G01X31900Y77400D02*
Y85600D01*
G01Y77400D02*
G03X37100I2600J1950D01*
G01X46250Y86450D02*
G03X38750I-3750J-6434D01*
G01Y74550D01*
G03X46250I3750J6296D01*
G01Y86450D01*
G01X44713Y99500D02*
Y97708D01*
X44820Y97333D01*
X45033Y97083D01*
X45300Y97000D01*
X45567Y97083D01*
X45780Y97333D01*
X45887Y97708D01*
Y99500D01*
G01X47700Y97000D02*
Y99500D01*
X47380Y99000D01*
G01Y97000D02*
X48020D01*
G01X37100Y85600D02*
G03X31900I-2600J-1711D01*
G01X41387Y91292D02*
X41227Y91417D01*
X41040Y91500D01*
X40827D01*
X40587Y91375D01*
X40400Y91167D01*
X40267Y90917D01*
X40160Y90500D01*
X40133Y90125D01*
X40187Y89750D01*
X40267Y89500D01*
X40427Y89250D01*
X40613Y89083D01*
X40800Y89000D01*
X40987D01*
X41173Y89083D01*
X41333Y89208D01*
X41467Y89375D01*
G01X43520Y89000D02*
Y91500D01*
X42533Y89708D01*
X43867D01*
G01X46267Y113500D02*
Y116000D01*
X46933D01*
X47147Y115875D01*
X47280Y115708D01*
X47333Y115375D01*
X47280Y115042D01*
X47120Y114833D01*
X46933Y114708D01*
X46267D01*
G01X46933D02*
X47333Y113500D01*
G01X48693Y115583D02*
X48853Y115833D01*
X49040Y115958D01*
X49253Y116000D01*
X49520Y115917D01*
X49707Y115708D01*
X49760Y115458D01*
X49733Y115208D01*
X49627Y115000D01*
X49093Y114583D01*
X48853Y114292D01*
X48693Y113875D01*
X48640Y113500D01*
X49760D01*
G01X51100Y112400D02*
Y117600D01*
X61900D01*
G01X51100Y112400D02*
X61900D01*
Y117600D01*
G01X45767Y119500D02*
Y122000D01*
X46433D01*
X46647Y121875D01*
X46780Y121708D01*
X46833Y121375D01*
X46780Y121042D01*
X46620Y120833D01*
X46433Y120708D01*
X45767D01*
G01X46433D02*
X46833Y119500D01*
G01X48113Y120000D02*
X48273Y119708D01*
X48487Y119542D01*
X48727Y119500D01*
X48940Y119542D01*
X49153Y119750D01*
X49287Y120000D01*
X49313Y120250D01*
X49260Y120542D01*
X49073Y120750D01*
X48887Y120833D01*
X48647D01*
G01X48887D02*
X49047Y120958D01*
X49180Y121167D01*
X49233Y121417D01*
X49180Y121667D01*
X49047Y121875D01*
X48807Y122000D01*
X48567Y121958D01*
X48327Y121792D01*
G01X51100Y118400D02*
Y123600D01*
X61900D01*
G01X51100Y118400D02*
X61900D01*
Y123600D01*
G01X34800Y137000D02*
Y134500D01*
G01X34187Y137000D02*
X35413D01*
G01X36667Y134500D02*
Y137000D01*
X37307D01*
X37520Y136875D01*
X37680Y136583D01*
X37733Y136250D01*
X37680Y135917D01*
X37547Y135667D01*
X37307Y135542D01*
X36667D01*
G01X39600Y134500D02*
Y137000D01*
X39280Y136500D01*
G01Y134500D02*
X39920D01*
G01X61600Y-130600D02*
Y-122400D01*
G01X56400Y-130600D02*
Y-122400D01*
G01Y-130600D02*
G03X61600I2600J1950D01*
G01X67600D02*
Y-122400D01*
G01X62400Y-130600D02*
Y-122400D01*
G01Y-130600D02*
G03X67600I2600J1950D01*
G01X73600D02*
Y-122400D01*
G01X68400Y-130600D02*
Y-122400D01*
G01Y-130600D02*
G03X73600I2600J1950D01*
G01X55100Y-140200D02*
X57700D01*
G01X56300Y-141500D02*
Y-138900D01*
G01X65067Y-141500D02*
Y-139000D01*
X65733D01*
X65947Y-139125D01*
X66080Y-139292D01*
X66133Y-139625D01*
X66080Y-139958D01*
X65920Y-140167D01*
X65733Y-140292D01*
X65067D01*
G01X65733D02*
X66133Y-141500D01*
G01X68000D02*
Y-139000D01*
X67680Y-139500D01*
G01Y-141500D02*
X68320D01*
G01X69893Y-140458D02*
X70080Y-140167D01*
X70240Y-140000D01*
X70453Y-139917D01*
X70640Y-140000D01*
X70773Y-140167D01*
X70880Y-140417D01*
X70907Y-140708D01*
X70880Y-140958D01*
X70773Y-141208D01*
X70613Y-141417D01*
X70427Y-141500D01*
X70213Y-141417D01*
X70027Y-141167D01*
X69920Y-140792D01*
X69893Y-140375D01*
X69947Y-139833D01*
X70027Y-139542D01*
X70160Y-139250D01*
X70347Y-139042D01*
X70533Y-139000D01*
X70720Y-139083D01*
X70853Y-139292D01*
G01X62600Y-138100D02*
Y-132900D01*
X73400D01*
G01X62600Y-138100D02*
X73400D01*
Y-132900D01*
G01X76567Y-142000D02*
Y-139500D01*
X77233D01*
X77447Y-139625D01*
X77580Y-139792D01*
X77633Y-140125D01*
X77580Y-140458D01*
X77420Y-140667D01*
X77233Y-140792D01*
X76567D01*
G01X77233D02*
X77633Y-142000D01*
G01X79500D02*
Y-139500D01*
X79180Y-140000D01*
G01Y-142000D02*
X79820D01*
G01X81447Y-141708D02*
X81633Y-141917D01*
X81847Y-142000D01*
X82060Y-141917D01*
X82247Y-141667D01*
X82380Y-141292D01*
X82433Y-140917D01*
Y-140458D01*
X82380Y-140083D01*
X82247Y-139750D01*
X82087Y-139583D01*
X81900Y-139500D01*
X81687Y-139583D01*
X81527Y-139750D01*
X81420Y-140000D01*
X81367Y-140333D01*
X81420Y-140625D01*
X81553Y-140917D01*
X81713Y-141083D01*
X81900Y-141125D01*
X82113Y-141042D01*
X82273Y-140833D01*
X82433Y-140458D01*
G01X74600Y-138100D02*
Y-132900D01*
X85400D01*
G01X74600Y-138100D02*
X85400D01*
Y-132900D01*
G01X56687Y-116708D02*
X56527Y-116583D01*
X56340Y-116500D01*
X56127D01*
X55887Y-116625D01*
X55700Y-116833D01*
X55567Y-117083D01*
X55460Y-117500D01*
X55433Y-117875D01*
X55487Y-118250D01*
X55567Y-118500D01*
X55727Y-118750D01*
X55913Y-118917D01*
X56100Y-119000D01*
X56287D01*
X56473Y-118917D01*
X56633Y-118792D01*
X56767Y-118625D01*
G01X57993Y-116917D02*
X58153Y-116667D01*
X58340Y-116542D01*
X58553Y-116500D01*
X58820Y-116583D01*
X59007Y-116792D01*
X59060Y-117042D01*
X59033Y-117292D01*
X58927Y-117500D01*
X58393Y-117917D01*
X58153Y-118208D01*
X57993Y-118625D01*
X57940Y-119000D01*
X59060D01*
G01X60900D02*
Y-116500D01*
X60580Y-117000D01*
G01Y-119000D02*
X61220D01*
G01X61600Y-122400D02*
G03X56400I-2600J-1711D01*
G01X63687Y-116708D02*
X63527Y-116583D01*
X63340Y-116500D01*
X63127D01*
X62887Y-116625D01*
X62700Y-116833D01*
X62567Y-117083D01*
X62460Y-117500D01*
X62433Y-117875D01*
X62487Y-118250D01*
X62567Y-118500D01*
X62727Y-118750D01*
X62913Y-118917D01*
X63100Y-119000D01*
X63287D01*
X63473Y-118917D01*
X63633Y-118792D01*
X63767Y-118625D01*
G01X64993Y-116917D02*
X65153Y-116667D01*
X65340Y-116542D01*
X65553Y-116500D01*
X65820Y-116583D01*
X66007Y-116792D01*
X66060Y-117042D01*
X66033Y-117292D01*
X65927Y-117500D01*
X65393Y-117917D01*
X65153Y-118208D01*
X64993Y-118625D01*
X64940Y-119000D01*
X66060D01*
G01X68220D02*
Y-116500D01*
X67233Y-118292D01*
X68567D01*
G01X67600Y-122400D02*
G03X62400I-2600J-1711D01*
G01X71187Y-116708D02*
X71027Y-116583D01*
X70840Y-116500D01*
X70627D01*
X70387Y-116625D01*
X70200Y-116833D01*
X70067Y-117083D01*
X69960Y-117500D01*
X69933Y-117875D01*
X69987Y-118250D01*
X70067Y-118500D01*
X70227Y-118750D01*
X70413Y-118917D01*
X70600Y-119000D01*
X70787D01*
X70973Y-118917D01*
X71133Y-118792D01*
X71267Y-118625D01*
G01X72493Y-116917D02*
X72653Y-116667D01*
X72840Y-116542D01*
X73053Y-116500D01*
X73320Y-116583D01*
X73507Y-116792D01*
X73560Y-117042D01*
X73533Y-117292D01*
X73427Y-117500D01*
X72893Y-117917D01*
X72653Y-118208D01*
X72493Y-118625D01*
X72440Y-119000D01*
X73560D01*
G01X74813Y-118625D02*
X74973Y-118833D01*
X75160Y-118958D01*
X75400Y-119000D01*
X75640Y-118917D01*
X75827Y-118750D01*
X75960Y-118458D01*
X75987Y-118125D01*
X75933Y-117792D01*
X75800Y-117583D01*
X75613Y-117417D01*
X75427Y-117375D01*
X75240Y-117417D01*
X75000Y-117583D01*
X75080Y-116500D01*
X75800D01*
G01X73600Y-122400D02*
G03X68400I-2600J-1711D01*
G01X82713Y107000D02*
Y109500D01*
X83247D01*
X83460Y109375D01*
X83620Y109208D01*
X83753Y108958D01*
X83860Y108667D01*
X83887Y108250D01*
X83860Y107833D01*
X83753Y107542D01*
X83620Y107292D01*
X83460Y107125D01*
X83247Y107000D01*
X82713D01*
G01X86020D02*
Y109500D01*
X85033Y107708D01*
X86367D01*
G01X60767Y142500D02*
X60900Y142250D01*
X61060Y142083D01*
X61247Y142000D01*
X61460Y142083D01*
X61620Y142250D01*
X61780Y142500D01*
X61833Y142833D01*
Y144500D01*
G01X63700Y142000D02*
Y144500D01*
X63380Y144000D01*
G01Y142000D02*
X64020D01*
G01X94187Y-128708D02*
X94027Y-128583D01*
X93840Y-128500D01*
X93627D01*
X93387Y-128625D01*
X93200Y-128833D01*
X93067Y-129083D01*
X92960Y-129500D01*
X92933Y-129875D01*
X92987Y-130250D01*
X93067Y-130500D01*
X93227Y-130750D01*
X93413Y-130917D01*
X93600Y-131000D01*
X93787D01*
X93973Y-130917D01*
X94133Y-130792D01*
X94267Y-130625D01*
G01X95493Y-128917D02*
X95653Y-128667D01*
X95840Y-128542D01*
X96053Y-128500D01*
X96320Y-128583D01*
X96507Y-128792D01*
X96560Y-129042D01*
X96533Y-129292D01*
X96427Y-129500D01*
X95893Y-129917D01*
X95653Y-130208D01*
X95493Y-130625D01*
X95440Y-131000D01*
X96560D01*
G01X98400Y-128500D02*
X98187Y-128583D01*
X98027Y-128792D01*
X97920Y-129042D01*
X97840Y-129375D01*
X97813Y-129750D01*
X97840Y-130125D01*
X97920Y-130458D01*
X98027Y-130708D01*
X98187Y-130917D01*
X98400Y-131000D01*
X98613Y-130917D01*
X98773Y-130708D01*
X98880Y-130458D01*
X98960Y-130125D01*
X98987Y-129750D01*
X98960Y-129375D01*
X98880Y-129042D01*
X98773Y-128792D01*
X98613Y-128583D01*
X98400Y-128500D01*
G01X102067Y-131000D02*
Y-128500D01*
X102733D01*
X102947Y-128625D01*
X103080Y-128792D01*
X103133Y-129125D01*
X103080Y-129458D01*
X102920Y-129667D01*
X102733Y-129792D01*
X102067D01*
G01X102733D02*
X103133Y-131000D01*
G01X105000D02*
Y-128500D01*
X104680Y-129000D01*
G01Y-131000D02*
X105320D01*
G01X107347D02*
X107400Y-130458D01*
X107480Y-130000D01*
X107587Y-129583D01*
X107720Y-129125D01*
X107933Y-128500D01*
X106867D01*
G01X100900Y-116600D02*
X106100D01*
Y-127400D01*
G01X100900Y-116600D02*
Y-127400D01*
X106100D01*
G01X102267Y-139500D02*
Y-142000D01*
X103333D01*
G01X105733D02*
X104667D01*
Y-139500D01*
X105733D01*
G01X105307Y-140708D02*
X104667D01*
G01X107013Y-142000D02*
Y-139500D01*
X107547D01*
X107760Y-139625D01*
X107920Y-139792D01*
X108053Y-140042D01*
X108160Y-140333D01*
X108187Y-140750D01*
X108160Y-141167D01*
X108053Y-141458D01*
X107920Y-141708D01*
X107760Y-141875D01*
X107547Y-142000D01*
X107013D01*
G01X110000D02*
Y-139500D01*
X109680Y-140000D01*
G01Y-142000D02*
X110320D01*
G01X86267Y-139500D02*
Y-142000D01*
X87333D01*
G01X89733D02*
X88667D01*
Y-139500D01*
X89733D01*
G01X89307Y-140708D02*
X88667D01*
G01X91013Y-142000D02*
Y-139500D01*
X91547D01*
X91760Y-139625D01*
X91920Y-139792D01*
X92053Y-140042D01*
X92160Y-140333D01*
X92187Y-140750D01*
X92160Y-141167D01*
X92053Y-141458D01*
X91920Y-141708D01*
X91760Y-141875D01*
X91547Y-142000D01*
X91013D01*
G01X93493Y-139917D02*
X93653Y-139667D01*
X93840Y-139542D01*
X94053Y-139500D01*
X94320Y-139583D01*
X94507Y-139792D01*
X94560Y-140042D01*
X94533Y-140292D01*
X94427Y-140500D01*
X93893Y-140917D01*
X93653Y-141208D01*
X93493Y-141625D01*
X93440Y-142000D01*
X94560D01*
G01X112213Y-99000D02*
Y-100792D01*
X112320Y-101167D01*
X112533Y-101417D01*
X112800Y-101500D01*
X113067Y-101417D01*
X113280Y-101167D01*
X113387Y-100792D01*
Y-99000D01*
G01X114613Y-101125D02*
X114773Y-101333D01*
X114960Y-101458D01*
X115200Y-101500D01*
X115440Y-101417D01*
X115627Y-101250D01*
X115760Y-100958D01*
X115787Y-100625D01*
X115733Y-100292D01*
X115600Y-100083D01*
X115413Y-99917D01*
X115227Y-99875D01*
X115040Y-99917D01*
X114800Y-100083D01*
X114880Y-99000D01*
X115600D01*
G01X112687Y-121208D02*
X112527Y-121083D01*
X112340Y-121000D01*
X112127D01*
X111887Y-121125D01*
X111700Y-121333D01*
X111567Y-121583D01*
X111460Y-122000D01*
X111433Y-122375D01*
X111487Y-122750D01*
X111567Y-123000D01*
X111727Y-123250D01*
X111913Y-123417D01*
X112100Y-123500D01*
X112287D01*
X112473Y-123417D01*
X112633Y-123292D01*
X112767Y-123125D01*
G01X114500Y-123500D02*
Y-121000D01*
X114180Y-121500D01*
G01Y-123500D02*
X114820D01*
G01X116447Y-123208D02*
X116633Y-123417D01*
X116847Y-123500D01*
X117060Y-123417D01*
X117247Y-123167D01*
X117380Y-122792D01*
X117433Y-122417D01*
Y-121958D01*
X117380Y-121583D01*
X117247Y-121250D01*
X117087Y-121083D01*
X116900Y-121000D01*
X116687Y-121083D01*
X116527Y-121250D01*
X116420Y-121500D01*
X116367Y-121833D01*
X116420Y-122125D01*
X116553Y-122417D01*
X116713Y-122583D01*
X116900Y-122625D01*
X117113Y-122542D01*
X117273Y-122333D01*
X117433Y-121958D01*
G01X111900Y-109900D02*
Y-118100D01*
G01D02*
G03X117100I2600J1711D01*
G01Y-109900D02*
G03X111900I-2600J-1950D01*
G01X94400Y-117400D02*
Y-125600D01*
G01X99600Y-117400D02*
Y-125600D01*
G01X94400D02*
G03X99600I2600J1711D01*
G01Y-117400D02*
G03X94400I-2600J-1950D01*
G01X112713Y107500D02*
Y110000D01*
X113247D01*
X113460Y109875D01*
X113620Y109708D01*
X113753Y109458D01*
X113860Y109167D01*
X113887Y108750D01*
X113860Y108333D01*
X113753Y108042D01*
X113620Y107792D01*
X113460Y107625D01*
X113247Y107500D01*
X112713D01*
G01X115700D02*
Y110000D01*
X115380Y109500D01*
G01Y107500D02*
X116020D01*
G01X102213D02*
Y110000D01*
X102747D01*
X102960Y109875D01*
X103120Y109708D01*
X103253Y109458D01*
X103360Y109167D01*
X103387Y108750D01*
X103360Y108333D01*
X103253Y108042D01*
X103120Y107792D01*
X102960Y107625D01*
X102747Y107500D01*
X102213D01*
G01X104693Y109583D02*
X104853Y109833D01*
X105040Y109958D01*
X105253Y110000D01*
X105520Y109917D01*
X105707Y109708D01*
X105760Y109458D01*
X105733Y109208D01*
X105627Y109000D01*
X105093Y108583D01*
X104853Y108292D01*
X104693Y107875D01*
X104640Y107500D01*
X105760D01*
G01X92713D02*
Y110000D01*
X93247D01*
X93460Y109875D01*
X93620Y109708D01*
X93753Y109458D01*
X93860Y109167D01*
X93887Y108750D01*
X93860Y108333D01*
X93753Y108042D01*
X93620Y107792D01*
X93460Y107625D01*
X93247Y107500D01*
X92713D01*
G01X95113Y108000D02*
X95273Y107708D01*
X95487Y107542D01*
X95727Y107500D01*
X95940Y107542D01*
X96153Y107750D01*
X96287Y108000D01*
X96313Y108250D01*
X96260Y108542D01*
X96073Y108750D01*
X95887Y108833D01*
X95647D01*
G01X95887D02*
X96047Y108958D01*
X96180Y109167D01*
X96233Y109417D01*
X96180Y109667D01*
X96047Y109875D01*
X95807Y110000D01*
X95567Y109958D01*
X95327Y109792D01*
G01X117100Y-109900D02*
Y-118100D01*
G01X123800Y-104000D02*
Y-106500D01*
G01X123187Y-104000D02*
X124413D01*
G01X125667Y-106500D02*
Y-104000D01*
X126307D01*
X126520Y-104125D01*
X126680Y-104417D01*
X126733Y-104750D01*
X126680Y-105083D01*
X126547Y-105333D01*
X126307Y-105458D01*
X125667D01*
G01X128013Y-106000D02*
X128173Y-106292D01*
X128387Y-106458D01*
X128627Y-106500D01*
X128840Y-106458D01*
X129053Y-106250D01*
X129187Y-106000D01*
X129213Y-105750D01*
X129160Y-105458D01*
X128973Y-105250D01*
X128787Y-105167D01*
X128547D01*
G01X128787D02*
X128947Y-105042D01*
X129080Y-104833D01*
X129133Y-104583D01*
X129080Y-104333D01*
X128947Y-104125D01*
X128707Y-104000D01*
X128467Y-104042D01*
X128227Y-104208D01*
G01X157240Y-107000D02*
Y-104500D01*
G01X158360D02*
Y-107000D01*
G01Y-105750D02*
X157240D01*
G01X159693Y-104917D02*
X159853Y-104667D01*
X160040Y-104542D01*
X160253Y-104500D01*
X160520Y-104583D01*
X160707Y-104792D01*
X160760Y-105042D01*
X160733Y-105292D01*
X160627Y-105500D01*
X160093Y-105917D01*
X159853Y-106208D01*
X159693Y-106625D01*
X159640Y-107000D01*
X160760D01*
G01X145987Y81292D02*
X145827Y81417D01*
X145640Y81500D01*
X145427D01*
X145187Y81375D01*
X145000Y81167D01*
X144867Y80917D01*
X144760Y80500D01*
X144733Y80125D01*
X144787Y79750D01*
X144867Y79500D01*
X145027Y79250D01*
X145213Y79083D01*
X145400Y79000D01*
X145587D01*
X145773Y79083D01*
X145933Y79208D01*
X146067Y79375D01*
G01X147800Y79000D02*
Y81500D01*
X147480Y81000D01*
G01Y79000D02*
X148120D01*
G01X149693Y81083D02*
X149853Y81333D01*
X150040Y81458D01*
X150253Y81500D01*
X150520Y81417D01*
X150707Y81208D01*
X150760Y80958D01*
X150733Y80708D01*
X150627Y80500D01*
X150093Y80083D01*
X149853Y79792D01*
X149693Y79375D01*
X149640Y79000D01*
X150760D01*
G01X152013Y79500D02*
X152173Y79208D01*
X152387Y79042D01*
X152627Y79000D01*
X152840Y79042D01*
X153053Y79250D01*
X153187Y79500D01*
X153213Y79750D01*
X153160Y80042D01*
X152973Y80250D01*
X152787Y80333D01*
X152547D01*
G01X152787D02*
X152947Y80458D01*
X153080Y80667D01*
X153133Y80917D01*
X153080Y81167D01*
X152947Y81375D01*
X152707Y81500D01*
X152467Y81458D01*
X152227Y81292D01*
G01X157267Y78500D02*
Y81000D01*
X157933D01*
X158147Y80875D01*
X158280Y80708D01*
X158333Y80375D01*
X158280Y80042D01*
X158120Y79833D01*
X157933Y79708D01*
X157267D01*
G01X157933D02*
X158333Y78500D01*
G01X160200D02*
Y81000D01*
X159880Y80500D01*
G01Y78500D02*
X160520D01*
G01X162093Y79542D02*
X162280Y79833D01*
X162440Y80000D01*
X162653Y80083D01*
X162840Y80000D01*
X162973Y79833D01*
X163080Y79583D01*
X163107Y79292D01*
X163080Y79042D01*
X162973Y78792D01*
X162813Y78583D01*
X162627Y78500D01*
X162413Y78583D01*
X162227Y78833D01*
X162120Y79208D01*
X162093Y79625D01*
X162147Y80167D01*
X162227Y80458D01*
X162360Y80750D01*
X162547Y80958D01*
X162733Y81000D01*
X162920Y80917D01*
X163053Y80708D01*
G01X165000Y78500D02*
X165187Y78542D01*
X165400Y78667D01*
X165533Y78875D01*
X165587Y79167D01*
X165533Y79458D01*
X165373Y79708D01*
X165133Y79833D01*
X164867D01*
X164707Y79917D01*
X164573Y80125D01*
X164520Y80417D01*
X164600Y80708D01*
X164787Y80917D01*
X165000Y81000D01*
X165213Y80917D01*
X165400Y80708D01*
X165480Y80417D01*
X165427Y80125D01*
X165293Y79917D01*
X165133Y79833D01*
X164867D01*
X164627Y79708D01*
X164467Y79458D01*
X164413Y79167D01*
X164467Y78875D01*
X164600Y78667D01*
X164813Y78542D01*
X165000Y78500D01*
G01X155400Y85100D02*
Y100900D01*
G03X146600I-4400J-9012D01*
G01Y85100D01*
G03X155400I4400J8645D01*
G01X157240Y137500D02*
Y140000D01*
G01X158360D02*
Y137500D01*
G01Y138750D02*
X157240D01*
G01X160200Y137500D02*
Y140000D01*
X159880Y139500D01*
G01Y137500D02*
X160520D01*
G54D13*
G01X-129780Y-138811D02*
X-102220D01*
G01X-129780Y-115189D02*
X-102220D01*
G01X-115307Y148150D02*
Y141850D01*
X-128693D01*
Y148150D01*
X-115307D01*
G01Y141150D02*
Y134850D01*
X-128693D01*
Y141150D01*
X-115307D01*
G01X-110094Y-138811D02*
Y-115189D01*
G01X-91350Y33807D02*
X-97650D01*
Y47193D01*
X-91350D01*
Y33807D01*
G01X-84350D02*
X-90650D01*
Y47193D01*
X-84350D01*
Y33807D01*
G01X-77350D02*
X-83650D01*
Y47193D01*
X-77350D01*
Y33807D01*
G01X-70350D02*
X-76650D01*
Y47193D01*
X-70350D01*
Y33807D01*
G01X-59039Y118972D02*
Y78028D01*
X-88961D01*
Y118972D01*
X-59039D01*
G01X-32350Y34307D02*
X-38650D01*
Y47693D01*
X-32350D01*
Y34307D01*
G01X-25350D02*
X-31650D01*
Y47693D01*
X-25350D01*
Y34307D01*
G01X82819Y113425D02*
Y116575D01*
G01X112319Y113425D02*
Y116575D01*
G01X102319Y113425D02*
Y116575D01*
G01X104681Y113425D02*
Y116575D01*
G01X92819Y113425D02*
Y116575D01*
G01X95181Y113425D02*
Y116575D01*
G01X85181Y113425D02*
Y116575D01*
G01X114681Y113425D02*
Y116575D01*
G54D14*
G01X-20681Y117543D02*
Y126402D01*
X-27374D01*
Y117543D01*
X-20681D01*
G54D15*
G01X181111Y-145668D02*
G02X173237Y-153542I-7874J0D01*
G01X-173228D01*
Y-153543D01*
G02X-181102Y-145669I0J7874D01*
G01Y145708D01*
X-181111D01*
G02X-173237Y153582I7874J0D01*
G01X173228D01*
G01X-53409Y-48409D02*
X-104591D01*
Y-95654D01*
X-100654Y-99591D01*
X-57346D01*
X-53409Y-95654D01*
Y-48409D01*
G01X-63500Y48500D02*
X-45000D01*
Y-5000D01*
X-63500D01*
Y48500D01*
G01X-16012Y-109839D02*
Y-127161D01*
G01X-4988Y-122437D02*
X-16012D01*
G01X-4988Y-127161D02*
Y-109839D01*
G01X10402Y122598D02*
X35598D01*
Y97402D01*
X10402D01*
Y122598D01*
G01X133449Y144811D02*
X64551D01*
Y121189D01*
X133449D01*
Y144811D01*
G01X111224Y-137862D02*
Y-133138D01*
G01X102169Y-137862D02*
Y-133138D01*
X110831D01*
Y-137862D01*
X102169D01*
G01X95724D02*
Y-133138D01*
G01X86669Y-137862D02*
Y-133138D01*
X95331D01*
Y-137862D01*
X86669D01*
G01X84402Y-107299D02*
Y-94701D01*
X109598D01*
Y-107299D01*
X84402D01*
G01X110811Y121189D02*
X87189D01*
Y125126D01*
X110811D01*
Y121189D01*
G01X112319Y115787D02*
X114681D01*
G01X102319D02*
X104681D01*
G01X92819D02*
X95181D01*
G01X82819D02*
X85181D01*
G01X173228Y153591D02*
G02X181102Y145717I0J-7874D01*
G01Y-145668D01*
G54D16*
G01X-25602Y117543D02*
Y110457D01*
G01X-20681Y104157D02*
X-17925D01*
G01X-13004Y110457D02*
Y117543D01*
G01X-17531Y123843D02*
X-20287D01*
G54D17*
G01X-60024Y76846D02*
G03I-984J0D01*
G54D18*
G01X-180158Y-74764D02*
X-109291D01*
Y88622D01*
X-180158D01*
Y-74764D01*
G01X2697Y68138D02*
Y-27138D01*
X152303D01*
Y68138D01*
X2697D01*
G01X7500Y30500D02*
Y40500D01*
X27500D01*
Y500D01*
X7500D01*
Y30500D01*
G01X6465Y127323D02*
G03I-787J0D01*
G01X172992Y-122047D02*
G03I-12598J0D01*
G01Y122047D02*
G03I-12598J0D01*
M02*
