G04 ================== begin FILE IDENTIFICATION RECORD ==================*
G04 Layout Name:  D:/WorkPrj/XiaobinGao/ADIS16448/BRD/ADI_BASEBOARD_V1.brd*
G04 Film Name:    TOP_PASTEMASK*
G04 File Format:  Gerber RS274X*
G04 File Origin:  Cadence Allegro 16.6-2015-S088*
G04 Origin Date:  Thu May 17 11:22:17 2018*
G04 *
G04 Layer:  PIN/PASTEMASK_TOP*
G04 Layer:  PACKAGE GEOMETRY/PASTEMASK_TOP*
G04 Layer:  BOARD GEOMETRY/OUTLINE*
G04 *
G04 Offset:    (0.000 0.000)*
G04 Mirror:    No*
G04 Mode:      Positive*
G04 Rotation:  0*
G04 FullContactRelief:  No*
G04 UndefLineWidth:     5.000*
G04 ================== end FILE IDENTIFICATION RECORD ====================*
%FSLAX25Y25*MOIN*%
%IR0*IPPOS*OFA0.00000B0.00000*MIA0B0*SFA1.00000B1.00000*%
%ADD29R,.115X.095*%
%ADD30C,.23622*%
%ADD24R,.035433X.11811*%
%ADD35R,.11811X.064961*%
%ADD36R,.009843X.01378*%
%ADD11R,.19685X.07874*%
%ADD10R,.094488X.129921*%
%ADD23R,.295276X.098425*%
%ADD22O,.07X.026*%
%ADD37R,.062X.05*%
%ADD15R,.032X.035*%
%ADD14R,.035X.032*%
%ADD16R,.055X.045*%
%ADD19R,.045X.055*%
%ADD27R,.048X.071*%
%ADD13R,.06X.06*%
%ADD21R,.061024X.023622*%
%ADD32R,.047244X.011811*%
%ADD18R,.11811X.185039*%
%ADD31R,.011811X.047244*%
%ADD28C,.03937*%
%ADD25R,.433071X.472441*%
%ADD17R,.023622X.062992*%
%ADD20R,.047244X.044882*%
%ADD12R,.044882X.047244*%
%ADD33R,.015748X.031496*%
%ADD34R,.024016X.068898*%
%ADD26R,.062992X.059055*%
%ADD38C,.003937*%
G75*
%LPD*%
G75*
G54D10*
X-128992Y-127000D03*
X-103008D03*
G54D20*
X-94500Y44240D03*
Y36760D03*
X-87500Y44240D03*
Y36760D03*
X-80500Y44240D03*
Y36760D03*
X-73500Y44240D03*
Y36760D03*
X-35500Y44740D03*
Y37260D03*
X-28500Y44740D03*
Y37260D03*
G54D11*
X-141575Y-69646D03*
Y83504D03*
G54D12*
X-125740Y145000D03*
Y138000D03*
X-118260Y145000D03*
Y138000D03*
G54D21*
X-93193Y81000D03*
Y86000D03*
Y91000D03*
Y96000D03*
Y101000D03*
Y106000D03*
Y111000D03*
Y116000D03*
X-54807Y81000D03*
Y111000D03*
Y106000D03*
Y101000D03*
Y96000D03*
Y91000D03*
Y86000D03*
Y116000D03*
G54D30*
X11752Y-17984D03*
Y58984D03*
X143248Y-17984D03*
Y58984D03*
G54D31*
X22016Y93268D03*
X20047D03*
X18079D03*
X16110D03*
X14142D03*
X12173D03*
Y126732D03*
X14142D03*
X16110D03*
X18079D03*
X20047D03*
X22016D03*
X33827Y93268D03*
X31858D03*
X29890D03*
X27921D03*
X25953D03*
X23984D03*
Y126732D03*
X25953D03*
X27921D03*
X29890D03*
X31858D03*
X33827D03*
G54D13*
X-115000Y-107500D03*
X-103000D03*
X4000Y-104000D03*
Y-92000D03*
X160500Y98500D03*
Y86500D03*
G54D22*
X-85700Y134000D03*
Y139000D03*
Y144000D03*
X-63300D03*
Y139000D03*
Y134000D03*
X-85700Y149000D03*
X-63300D03*
G54D32*
X6268Y99173D03*
Y101142D03*
Y103110D03*
Y105079D03*
Y107047D03*
Y109016D03*
Y110984D03*
Y112953D03*
Y114921D03*
Y116890D03*
Y118858D03*
Y120827D03*
X39732Y112953D03*
Y110984D03*
Y109016D03*
Y107047D03*
Y105079D03*
Y103110D03*
Y101142D03*
Y99173D03*
Y120827D03*
Y118858D03*
Y116890D03*
Y114921D03*
G54D14*
X-106250Y100000D03*
X-111750D03*
X-106250Y106000D03*
X-111750D03*
X-98250Y150000D03*
X-103750D03*
X-87750Y73500D03*
X-93250D03*
X-85750Y126000D03*
X-80250D03*
X-67750D03*
X-39250Y80000D03*
X-44750D03*
Y106000D03*
X-39250D03*
Y96000D03*
X-44750D03*
Y86000D03*
X-39250D03*
X-62250Y126000D03*
X-47250Y133000D03*
X-52750D03*
X-47250Y149000D03*
X-52750D03*
X-14750Y97500D03*
X-20250D03*
X-7250Y131000D03*
X-24250Y130500D03*
X-18750D03*
X-1750Y131000D03*
X53750Y115000D03*
Y121000D03*
X65250Y-135500D03*
X70750D03*
X77250D03*
X82750D03*
X59250Y115000D03*
Y121000D03*
G54D23*
X-32500Y-136417D03*
Y-113189D03*
G54D33*
X109256Y-135500D03*
X103744D03*
X93756D03*
X88244D03*
G54D15*
X-98000Y127250D03*
Y132750D03*
Y144250D03*
Y138750D03*
X-14500Y80750D03*
X-32000D03*
X-26500D03*
X-21000D03*
X-14500Y86250D03*
X-32000D03*
X-26500D03*
X-21000D03*
X7500Y-136250D03*
Y-130750D03*
X1500Y-136250D03*
Y-130750D03*
X7500Y-124250D03*
Y-118750D03*
X18000Y136750D03*
Y142250D03*
X12000Y136750D03*
Y142250D03*
X23500D03*
Y136750D03*
X34500Y84250D03*
Y78750D03*
X59000Y-129250D03*
X65000D03*
X71000D03*
X59000Y-123750D03*
X65000D03*
X71000D03*
X97000Y-124250D03*
Y-118750D03*
X103500Y-119250D03*
Y-124750D03*
X114500Y-116750D03*
Y-111250D03*
G54D24*
X-39386Y-91941D03*
X-32693D03*
X-26000D03*
X-19307D03*
X-12614D03*
G54D34*
X106055Y-111335D03*
X97000D03*
X87945D03*
G54D25*
X-26000Y-59658D03*
G54D16*
X-92000Y-127200D03*
Y-134800D03*
X-69000Y-127200D03*
Y-134800D03*
X42500Y84300D03*
Y76700D03*
G54D26*
X-10500Y-126571D03*
Y-110429D03*
G54D17*
X-83256Y-127500D03*
X-77744D03*
G54D35*
X97000Y-91256D03*
G54D18*
X-79000Y-91913D03*
Y-53724D03*
G54D27*
X-14579Y106126D03*
X-24028D03*
X-14579Y121874D03*
X-24028D03*
G54D36*
X103500Y113346D03*
X94000D03*
X84000D03*
X103500Y116654D03*
X94000D03*
X84000D03*
X113500Y113346D03*
Y116654D03*
G54D28*
X-30000Y95500D03*
X29500Y136500D03*
X122500Y-111000D03*
G54D19*
X-77300Y-108000D03*
X-69700D03*
G54D37*
X151000Y98500D03*
Y87500D03*
G54D38*
G01X181111Y-145668D02*
G02X173237Y-153542I-7874J0D01*
G01X-173228D01*
Y-153543D01*
G02X-181102Y-145669I0J7874D01*
G01Y145708D01*
X-181111D01*
G02X-173237Y153582I7874J0D01*
G01X173228D01*
G01Y153591D02*
G02X181102Y145717I0J-7874D01*
G01Y-145668D01*
G54D29*
X22000Y-136050D03*
Y-111950D03*
X45000Y-136050D03*
Y-111950D03*
M02*
